<?xml version="1.0" encoding="UTF-8"?><svg id="Layer_1" xmlns="http://www.w3.org/2000/svg" viewBox="0 0 1170.28 1176.51"><defs><style>.cls-1{fill:#fff;}.cls-2{fill:#62bb46;}.cls-3{fill:#f57f29;}.cls-4{fill:#00aeef;}.cls-5{fill-rule:evenodd;}.cls-5,.cls-6{fill:#cd163f;}.cls-7{fill:#2285b5;}.cls-8{fill:#953192;}.cls-9{fill:#faa41a;}</style></defs><g id="Layer_2"><g id="Layer_1-2"><g id="IEEE_Day"><polygon class="cls-9" points="260.2 119.95 258.83 177.94 250.81 177.2 260.2 119.95"/><path class="cls-9" d="m261.21,109.03c3.92.36,6.79,3.84,6.43,7.75-.36,3.92-3.84,6.79-7.75,6.43-3.92-.36-6.79-3.84-6.43-7.75.36-3.91,3.83-6.79,7.74-6.43,0,0,0,0,.01,0h0Z"/><path class="cls-9" d="m269.63,192.03l5.37,6.47c26.73-1.43,52.57-10.05,74.82-24.93l-187.59-17.48c21.24,20.84,48.24,34.84,77.52,40.19,3.89-8.97,14.31-13.1,23.29-9.21,2.56,1.11,4.83,2.81,6.6,4.96h0Z"/><path class="cls-9" d="m264.4,198.69c2.58,4.65.9,10.51-3.74,13.09-4.65,2.58-10.51.9-13.09-3.74-1.85-3.33-1.56-7.44.74-10.48-2.88-.36-5.75-.77-8.57-1.29-2.68,6.13-1.67,13.25,2.6,18.4l19.92,24.01,27.29-22.64-14.55-17.54c-3.5.19-7.03.25-10.59.2h0Z"/><path class="cls-9" d="m249.83,195.93c4.05-3.4,10.09-2.87,13.5,1.18.41.49.77,1.02,1.08,1.58,3.55.06,7.08,0,10.59-.2l-5.36-6.47c-6.23-7.54-17.39-8.59-24.93-2.36-2.15,1.78-3.85,4.04-4.96,6.61,2.83.52,5.69.93,8.57,1.28.44-.6.95-1.14,1.52-1.63h0Z"/><polygon class="cls-9" points="299.9 207.44 249.26 249.45 267.91 301.52 347.63 235.39 299.9 207.44"/><path class="cls-9" d="m174.48,270.22l-10.22,17.25-20.06-11.98-8.25,13.92,20.06,11.99-2.06,3.48-20.67-12.35-8.25,13.92,20.67,12.35-22.51,37.99-31.78-18.99,4.22,49.52,6.99,4.18-8.77,14.8,8.23,4.91,80.65-136.07-8.23-4.91Zm4.73,18.24l-68.1,114.91,68.56,40.96,7.89-13.32-40.49-24.19,14.06-23.73,40.49,24.19,46.15-77.86-68.56-40.96Zm-16.69,79.73l-10.51-6.28,5.75-9.71,10.51,6.28-5.75,9.71Zm7.5-12.66l-10.51-6.28,5.75-9.71,10.51,6.28-5.75,9.71Zm7.5-12.66l-10.51-6.28,5.75-9.71,10.51,6.28-5.75,9.71Zm7.5-12.66l-10.51-6.28,5.75-9.71,10.51,6.28-5.75,9.71Zm7.59-12.81l-10.51-6.28,5.75-9.71,10.51,6.28-5.75,9.71Zm-5.06,113.61l14.06-23.73-14.06,23.73Zm-46.95-157.66l-12.87-7.69-8.25,13.92,12.87,7.69,8.25-13.92Zm-10.92,17.04l-12.87-7.69-8.25,13.92,12.87,7.69,8.25-13.92Z"/><path class="cls-9" d="m139.33,549.11c1.75-7.89.56-8.78.56-8.78l-18.61-20.55,2.3-6.35c.9-2.5-.39-5.26-2.89-6.16-2.5-.9-5.26.39-6.16,2.89h0l-.56,1.54-4.61-5.1,2.7-7.49c.9-2.5-.4-5.26-2.91-6.16-2.5-.89-5.25.4-6.15,2.89l-.96,2.68-9.18-10.13s2.45-6.28,4.97-14.55c2.18-7.42,3.43-15.08,3.73-22.8-.04-4.37-2.43-5.76-2.43-5.76l-.67-.24s-2.72-.47-5.55,2.87c-4.72,6.13-8.66,12.82-11.72,19.92-3.35,7.97-5.47,14.36-5.47,14.36l-13.53,1.93.97-2.68c.91-2.5-.39-5.26-2.89-6.17s-5.26.39-6.17,2.89l-2.7,7.49-6.81.97.56-1.54c.9-2.5-.39-5.26-2.89-6.16-2.5-.9-5.26.39-6.16,2.89l-2.3,6.34-27.45,3.9s-1.49-.08-5.18,7.1c-1.46,2.83-1.94,3.61,1.09,3.97,3.02.36,29.87,2.19,36.66,3.7,6.8,1.51,25.53,6.34,25.53,6.34-.23.87-2.06,7.4-3.18,11.22-1.47,4.94-1.33,3.45-3.4,11.08-.63,2.28-2.32,8.72-2.96,11.94-.65,3.24-1.42,9.31-1.42,9.31,0,0-12.19,2.94-14.63,3.58-2.44.64-9.6,1.73-10.89,4.15-1.3,2.42-2.18,4.3-.8,4.54,1.38.23,24.3,1.75,24.3,1.75-.44,1.57-.76,3.18-.95,4.8.04,1.07.17,1.43.31,1.47l.58.21c.14.05.46-.15,1.18-.94.89-1.37,1.67-2.81,2.34-4.3,0,0,18.59,13.48,19.81,14.19,1.22.7,1.74-1.32,2.29-4.01.55-2.69-4.27-8.1-5.73-10.15-1.47-2.04-8.96-12.11-8.96-12.11,0,0,3.28-5.16,4.85-8.06,1.58-2.89,4.39-8.92,5.37-11.08,3.28-7.19,2.43-5.96,4.47-10.7,1.57-3.65,4.33-9.84,4.72-10.65,0,0,17.49,8.26,23.68,11.45,6.21,3.19,28.02,18.95,30.57,20.6,2.55,1.66,2.68.75,3.36-2.34h0Z"/><path class="cls-3" d="m196.06,697.87l-2.24-77.96-28.3.81v-.06s-131.79,3.78-131.79,3.78l-18.84,38.94,21.07,39.04,146.97-4.22v.04s13.12-.37,13.12-.37Zm-152.26-50.69l-.38-13.18,13.18-.37.39,13.18-13.18.38Zm22.44-.64l-.37-13.18,13.17-.38.39,13.19-13.2.37Zm21.94-.62l-.37-13.19,13.18-.37.38,13.18-13.18.38Zm22.45-.65l-.38-13.18,13.18-.38.38,13.18-13.18.38Zm21.94-.63l-.37-13.18,13.17-.38.37,13.18-13.16.38Zm-87.45,48.53l-.38-13.18,13.18-.37.38,13.17-13.17.38Zm22.44-.64l-.36-13.19,13.17-.37.38,13.18-13.19.39Zm21.94-.64l-.39-13.18,13.18-.38.38,13.17-13.17.38Zm22.45-.64l-.37-13.18,13.18-.38.37,13.18-13.18.38Zm21.94-.64l-.38-13.17,13.17-.37.38,13.17-13.17.37Z"/><path class="cls-3" d="m224.82,896.4v.02c2.25-4.28,4.91-8.31,7.96-12.06-.03-.06-.07-.11-.1-.17-2.24-4.16-.22-5.24-2.46-9.4-2.23-4.16-4.25-3.08-6.48-7.24-2.24-4.16-.22-5.24-2.46-9.4-2.23-4.16-4.25-3.08-6.48-7.24-2.23-4.16-.22-5.24-2.46-9.4-2.24-4.16-4.25-3.08-6.48-7.24-2.24-4.16-.22-5.24-2.46-9.41-2.24-4.16-4.25-3.08-6.48-7.24s-.22-5.24-2.46-9.41c-2.24-4.16-4.25-3.08-6.48-7.24-2.24-4.16-.22-5.24-2.46-9.41-2.24-4.16-4.25-3.08-6.48-7.25-2.24-4.16-.22-5.24-2.46-9.4-2.24-4.16-4.25-3.08-6.48-7.24-1.42-2.65-1.13-4.06-1.3-5.8-10.94-11.99-25.16-21.92-29.28-24.68l-8.81,7.32,89.42,166.49c.68-5.11,2.27-10.05,4.69-14.6h0Z"/><path class="cls-3" d="m74.95,778.87l12.57,23.4c.28.52.72.82.99.68l21.34-11.46,5.73,10.66c.16.23.47.3.7.15l30.29-16.27c.26-.11.37-.41.26-.67l-6.23-11.6-11.67-21.73-.9-1.67c-.28-.52-.72-.83-.99-.69l-52.12,27.99c-.27.14-.26.68.02,1.2h0Zm23.8,9.24l2.79,5.19-2.51,1.35-2.79-5.2,2.51-1.34Zm-4.94,2.52l2.79,5.2-2.51,1.34-2.79-5.2,2.51-1.35Zm-5.13,2.75l2.79,5.2-2.51,1.34-2.79-5.2,2.51-1.35Zm5.85-13.13l2.79,5.2-2.51,1.35-2.79-5.2,2.51-1.35Zm-4.94,2.52l2.79,5.2-2.51,1.35-2.79-5.2,2.51-1.35Zm-5.13,2.75l2.79,5.2-2.51,1.35-2.79-5.2,2.51-1.35Zm5.85-13.13l2.79,5.19-2.51,1.34-2.79-5.19,2.51-1.34Zm-4.94,2.52l2.79,5.19-2.51,1.35-2.79-5.2,2.51-1.35Zm-5.13,2.75l2.79,5.19-2.51,1.35-2.79-5.2,2.51-1.35Z"/><path class="cls-3" d="m150.63,826.46l12.81,23.85c.15.23.47.3.7.15l13.21-7.09c.26-.11.38-.42.26-.67l-12.81-23.85c-.15-.23-.47-.3-.7-.15l-13.21,7.1c-.26.11-.37.41-.26.67h0Z"/><path class="cls-3" d="m145.16,824.51l-12.81-23.86c-.16-.23-.47-.3-.7-.15l-13.21,7.1c-.26.11-.37.41-.26.67l12.81,23.86c.16.23.47.3.7.15l13.21-7.1c.25-.11.37-.41.26-.67h0Z"/><path class="cls-3" d="m135.74,798.74l12.81,23.85c.15.24.47.3.7.15l13.21-7.1c.26-.11.37-.41.26-.67l-12.81-23.86c-.16-.23-.47-.3-.7-.15l-13.21,7.09c-.26.11-.37.41-.26.67h0Z"/><path class="cls-3" d="m132.81,836.12l12.81,23.86c.15.23.47.3.7.15l13.21-7.1c.26-.11.37-.41.26-.67l-12.81-23.86c-.15-.23-.47-.3-.7-.15l-13.21,7.09c-.26.11-.37.41-.26.67h0Z"/><path class="cls-3" d="m191.37,883.17l3,5.59c.12.23.27.39.32.36l6-3.22c.06-.03,0-.24-.12-.46l-3-5.59c-.12-.23-.27-.39-.32-.36l-6,3.22c-.06.03,0,.24.12.46h0Z"/><path class="cls-3" d="m185.55,872.33l3,5.59c.12.23.26.39.32.36l6-3.22c.06-.03,0-.24-.12-.46l-3-5.59c-.12-.22-.26-.38-.32-.35l-6,3.22c-.05.03,0,.24.12.46h0Z"/><path class="cls-3" d="m179.73,861.49l3,5.59c.12.23.27.39.32.36l6-3.22c.06-.03,0-.24-.12-.46l-3-5.59c-.12-.23-.27-.39-.32-.36l-6,3.22c-.06.03,0,.24.12.46h0Z"/><path class="cls-3" d="m173.91,850.66l3,5.59c.12.23.26.39.32.36l6-3.22c.06-.03,0-.23-.12-.46l-3-5.59c-.12-.22-.26-.38-.32-.35l-6,3.22c-.06.03,0,.24.12.46h0Z"/><polygon class="cls-3" points="218.03 1028.51 214.33 1024.66 311.46 922.42 326.37 938.62 218.03 1028.51"/><path class="cls-3" d="m211.55,1041.85c-.11,0-.23,0-.34,0-2.83-.1-5.5-1.35-7.4-3.45-3.92-4.18-3.81-10.71.23-14.76,1.92-1.82,4.49-2.8,7.13-2.71,2.83.1,5.5,1.35,7.39,3.45,3.92,4.17,3.82,10.71-.23,14.75-1.82,1.75-4.26,2.72-6.79,2.71h0Z"/><path class="cls-3" d="m122.25,1074.8c-1.09-.01-1.97-.91-1.96-2.01,0-.76.46-1.45,1.15-1.77l80.7-37.24.44,1.2c.64,1.83,1.93,3.36,3.62,4.31l1.02.6-7.76,13.05c-1.78,2.99-4.71,5.13-8.1,5.92l-68.65,15.89c-.15.04-.31.05-.47.05h0Z"/><path class="cls-3" d="m291.95,1088.94c-.41,0-.81-.13-1.15-.37l-73.3-51.77.46-.91c.75-1.46,1.05-3.11.86-4.75l-.15-1.33,17.45.22c3.48.05,6.79,1.52,9.17,4.06l48.09,51.51c.75.81.69,2.07-.11,2.81-.36.33-.83.52-1.33.53h0Z"/><path class="cls-3" d="m206.36,1024.7l-8.39-14.97c-1.7-3.04-2.09-6.64-1.08-9.97l20.56-67.4c.32-1.05,1.43-1.64,2.47-1.32.9.27,1.48,1.14,1.4,2.08l-8.32,90.86-1.24-.19c-1.5-.23-3.04-.06-4.44.51l-.96.39Z"/><path class="cls-6" d="m378.19,1107.72l-20.65-9.62,5.38-11.54c-3.92-3.13-7.33-6.85-10.11-11.03l-11.96,4.37-7.8-21.39,11.96-4.36c-.56-4.99-.34-10.03.65-14.94l-11.54-5.37,9.62-20.65,11.54,5.38c3.13-3.92,6.85-7.33,11.02-10.11l-4.36-11.95,21.39-7.8,4.35,11.97c2.1-.23,4.21-.31,6.32-.26-1.51,2.28-2.84,4.67-4,7.16-.24.51-.45,1.04-.66,1.57-21.88,2.08-37.94,21.5-35.86,43.38,2.08,21.88,21.5,37.94,43.38,35.86,7.01-.67,13.72-3.18,19.44-7.29.2.09.41.2.63.31,2.79,1.3,5.69,2.36,8.65,3.19-1.79,1.62-3.69,3.11-5.7,4.45l4.38,11.97-21.4,7.79-4.35-11.97c-4.99.56-10.03.35-14.95-.64l-5.37,11.54Z"/><path class="cls-6" d="m440.57,1083.02c-1.9,4.08-.12,8.93,3.96,10.83,4.08,1.9,8.93.12,10.83-3.96,1.89-4.08.13-8.92-3.94-10.82-4.08-1.91-8.93-.15-10.83,3.93,0,0,0,.01,0,.02h0Zm9.23,19.65c-1.68.19-3.38.12-5.04-.22l-1.81,3.89-6.96-3.24,1.81-3.89c-1.32-1.05-2.48-2.31-3.41-3.71l-4.04,1.46-2.63-7.21,4.04-1.46c-.18-1.68-.11-3.38.22-5.04l-3.89-1.81,3.24-6.96,3.89,1.81c1.05-1.32,2.3-2.46,3.71-3.4l-1.47-4.05,7.21-2.64,1.47,4.06c1.68-.19,3.38-.12,5.04.21l1.81-3.89,6.96,3.24-1.81,3.89c1.32,1.06,2.47,2.32,3.41,3.73l4.03-1.49,2.63,7.21-4.04,1.5c.19,1.67.12,3.37-.22,5.02l3.89,1.81-3.24,6.96-3.89-1.81c-1.05,1.32-2.3,2.47-3.71,3.41l1.46,4.02-7.21,2.63-1.46-4.02Z"/><path class="cls-6" d="m428.19,1025.36c-3.12,6.74-.19,14.73,6.54,17.86,6.74,3.12,14.73.19,17.86-6.54,3.12-6.73.21-14.71-6.51-17.84-6.72-3.14-14.72-.24-17.86,6.48,0,.02-.01.03-.02.05h0Zm38.56,10.95l6.42,2.99-5.34,11.48-6.43-2.99c-1.74,2.19-3.8,4.1-6.13,5.64l2.44,6.65-11.89,4.33-2.43-6.65c-2.77.31-5.57.19-8.3-.36l-2.99,6.42-11.46-5.34,2.99-6.43c-2.19-1.74-4.09-3.81-5.64-6.13l-6.64,2.42-4.33-11.88,6.64-2.42c-.31-2.78-.19-5.59.36-8.33l-6.42-2.99,5.34-11.47,6.42,2.99c1.74-2.17,3.81-4.07,6.14-5.61l-2.41-6.65,11.88-4.33,2.42,6.64c2.78-.3,5.58-.17,8.32.38l3-6.43,11.46,5.34-2.99,6.43c2.18,1.74,4.07,3.8,5.62,6.12l6.65-2.42,4.34,11.88-6.66,2.43c.32,2.77.2,5.57-.36,8.3h0Z"/><path class="cls-6" d="m475.02,1060.35c-1.55,3.33-.11,7.28,3.21,8.83,3.33,1.55,7.28.11,8.83-3.21,1.55-3.33.11-7.28-3.21-8.83,0,0,0,0,0,0-3.33-1.55-7.28-.11-8.83,3.21h0Zm10.11-13.37l5.69,2.65-1.47,3.16c1.07.86,2,1.88,2.76,3.02l3.28-1.2,2.15,5.87-3.31,1.22c.18,1.36.12,2.75-.17,4.09l3.17,1.48-2.64,5.66-3.17-1.48c-.85,1.09-1.87,2.02-3.03,2.77l1.21,3.29-5.88,2.14-1.19-3.28c-1.36.15-2.74.09-4.09-.17l-1.48,3.19-5.69-2.65,1.48-3.19c-1.07-.86-2.01-1.88-2.77-3.02l-3.28,1.2-2.15-5.88,3.3-1.19c-.16-1.37-.1-2.75.18-4.1l-3.17-1.48,2.64-5.67,3.17,1.48c.85-1.08,1.87-2.01,3.02-2.76l-1.19-3.31,5.87-2.13,1.19,3.29c1.37-.15,2.75-.09,4.1.17l1.47-3.16Z"/><path class="cls-5" d="m623.2,1053.89c-5.99,6.64-14.55,10.38-23.5,10.27-1.54,0-3.08-.1-4.6-.31-7.29-.99-13.99-4.52-18.92-9.98-.11-.12-.17-.28-.16-.44,0-.17.05-.33.16-.46l4.62-4.85c.2-.23.54-.25.77-.06.02.02.04.04.06.06,4.01,4.44,9.53,7.21,15.47,7.79.85.09,1.71.13,2.6.13,6.88.08,13.46-2.79,18.07-7.9.11-.12.26-.18.41-.18.16,0,.31.07.41.18l4.6,4.86c.11.12.18.27.17.44,0,.17-.06.33-.17.46h0Zm-14.32-15.79c.16,0,.32.07.43.19l4.62,4.87c.11.13.16.29.16.46,0,.15-.05.31-.16.42-3.64,4.03-8.83,6.31-14.26,6.25-.25,0-.49,0-.73-.02-5.16-.14-10.04-2.39-13.49-6.23-.11-.11-.18-.26-.17-.42,0-.17.06-.33.17-.46l4.62-4.87c.11-.12.26-.19.41-.19.15,0,.3.07.39.19,2.24,2.49,5.44,3.89,8.79,3.85.39,0,.78-.02,1.16-.06h.02c2.93-.25,5.66-1.61,7.63-3.79.1-.12.24-.19.39-.19h0Z"/><path class="cls-5" d="m535.56,1057.78c.32,2.21,1.32,4.26,2.87,5.87,3.77,4.03,10.09,4.24,14.12.48.16-.15.32-.31.48-.48,3.93-4.4,3.93-11.05,0-15.46-3.84-4.03-10.22-4.18-14.25-.34-.12.11-.23.22-.34.34-1.97,2.09-3.03,4.87-2.95,7.73-.02.62,0,1.24.08,1.85h0Zm-2.5,11.52c-2.58-2.69-4.29-6.09-4.9-9.77-.2-1.19-.3-2.4-.29-3.6-.11-4.96,1.76-9.77,5.19-13.35,6.39-6.96,17.22-7.42,24.18-1.03.36.33.7.67,1.03,1.03,6.95,7.55,6.95,19.17,0,26.73-6.46,6.96-17.34,7.37-24.3.91-.31-.29-.62-.59-.91-.91h0Z"/><path class="cls-5" d="m661.08,1063.65c1.7-1.77,2.74-4.06,2.95-6.5.04-.4.06-.81.06-1.22.06-2.87-1.03-5.65-3.01-7.73-1.84-2.04-4.47-3.18-7.22-3.12-2.77-.05-5.44,1.09-7.32,3.12-3.98,4.38-3.98,11.07,0,15.46,1.87,2.05,4.54,3.21,7.32,3.17,2.75.04,5.38-1.12,7.22-3.17h0Zm-19.94,5.65c-6.89-7.57-6.89-19.15,0-26.73,6.44-6.98,17.32-7.42,24.31-.98.34.31.67.64.98.98,3.44,3.58,5.32,8.39,5.23,13.35-.01,1.03-.1,2.06-.25,3.08-.52,3.87-2.26,7.48-4.98,10.29-6.51,6.98-17.45,7.37-24.43.86-.3-.28-.58-.56-.86-.86h0Z"/><path class="cls-5" d="m606.47,1128.28h-4.42c-.19,0-.38,0-.57-.02-5.43-.13-10.51-2.68-13.86-6.96l-12.65-14.48c-2.88-2.97-6.37-5.27-10.24-6.73-1.13-.39-2.28-.69-3.46-.89l-38.19-5.61c-6.29-1.02-9.03-4.55-8.22-10.6.37-2.57.79-5.15,1.26-7.73.5-2.73,1.05-5.45,1.65-8.19.84-2.62,2.7-4.78,5.17-6,.87,4.6,3.06,8.85,6.31,12.23,8.42,9.06,22.59,9.57,31.65,1.15.4-.37.78-.75,1.15-1.15,4.48-4.67,6.92-10.92,6.8-17.39,0-.35-.02-.7-.04-1.04h2.5c.22.95.68,1.82,1.34,2.54.04.02.07.05.1.08,5.66,6.27,13.36,10.33,21.73,11.46h.02c1.72.23,3.45.35,5.19.35h.02c10.25.13,20.07-4.16,26.94-11.77.02-.03.05-.06.08-.08.68-.73,1.15-1.61,1.38-2.58h2.52c0,.34,0,.69,0,1.04-.14,6.46,2.28,12.72,6.75,17.39,8.46,9.07,22.67,9.57,31.75,1.11.38-.36.75-.73,1.11-1.11,3.31-3.43,5.52-7.78,6.35-12.48,2.25,1.62,4.08,4.36,5.49,8.23l3.58,10.23c1.74,5.62.47,10.91-3.82,15.85l-24.7,25.64c-4.71,4.7-11.07,7.38-17.72,7.5h-16.58l.08-.02h-16.44v.02Zm-1.44-11.72c-.09.32-.08.67.04.98.11.29.33.54.61.69.27.16.6.21.9.14.32-.07.59-.26.79-.52l18.09-23.93c.42-.59.36-1.39-.14-1.92-.25-.24-.58-.38-.93-.37h-9.77l4.44-16.31c.09-.32.07-.67-.06-.98-.11-.29-.33-.54-.61-.69-.27-.15-.6-.2-.9-.12-.31.07-.58.26-.77.52l-18.09,23.91c-.22.28-.32.63-.29.98.02.36.17.7.43.96.25.24.58.38.93.38h9.75l-4.43,16.29Z"/><path class="cls-6" d="m729.51,1157.44c.22,1.05,1.17,1.78,2.24,1.72l50.71-2.91c.21-.01.42-.05.62-.13l.6-.22,13.5,19.67c.56.81,1.59,1.14,2.52.81l.24-.09c.93-.34,1.5-1.26,1.4-2.24l-2.42-23.74.6-.22c.2-.07.39-.18.56-.3l40.57-30.57c.95-.72,1.14-2.07.42-3.02-.57-.76-1.57-1.05-2.46-.72l-41.67,15.28-.17-1.66c0-.11-.03-.21-.06-.32l-4.28-16.63.02-.03,35.27-28.33c.93-.75,1.07-2.11.32-3.03-.58-.72-1.55-.99-2.42-.67l-37.88,13.89-6.45-25.03-1.58-76.68c-.03-1.19-1.01-2.14-2.2-2.11-.98.02-1.82.7-2.05,1.65l-11.44,46.93-25.86,9.49-39.08-28.41c-.58-.42-1.34-.53-2.01-.28-.31.11-.59.3-.82.54-.75.79-.79,2-.11,2.85l48.36,59.52,11.26,23.27-37.88,13.89c-1.12.41-1.69,1.65-1.28,2.77.32.87,1.16,1.44,2.08,1.41l45.26-1.19,7.49,15.47c.05.1.1.19.17.28l.95,1.38-41.67,15.28c-1,.37-1.59,1.42-1.37,2.46h0Zm45.75-21.41v-.02s-5.42-11.18-5.42-11.18l9.22,3.81-3.8,7.38Zm-.73-62.82l-7.39,13.67-14.48-5.65,21.87-8.02Zm-22.45,3.64l7.4-10.49,12.43,3.22-19.83,7.27Zm28.28,19.82l-16.97,6.22,5.74-10.61,11.23,4.39Zm4.39,2.98l2.61,10.14-21.07,7.72-4.56-9.42,23.02-8.44Zm-14.09,20.86l15.53-5.7-5.15,9.99-10.38-4.29Zm19.5,12.73l-10.62,3.89,3.52-6.83,7.1,2.93Zm6.08,33.36l-8.39-12.23,6.89-2.53,1.5,14.76Zm-1.95-19.18l-8.96,3.29-6.08-8.86,13.95-5.12,1.09,10.69Zm-9.24-20.96l4.41-8.55,2.99,11.61-7.39-3.06Zm41.38-1.92l-27.98,21.08-1.06-10.43,29.04-10.65Zm-43.36-31.45l-11.87-4.63,7.23-13.38,4.64,18.01Zm31.7-4.44l-23.53,18.9-2.41-9.38,25.94-9.51Zm-37.83-22.23l-14.79-3.83,14.29-20.26.5,24.09Zm-1.19-57.57l.52,25.38-7.37,2.71,6.85-28.09Zm-9.16,33.53l6.12-2.24-15.02,21.3-25.24-6.54,6.12-2.25,28.02-10.27Zm-56.68-9.38l23.38,17-7.37,2.7-16.01-19.7Zm21.82,86.11l25.94-9.51,4.22,8.72-30.16.79Zm14.49-41.42l-15.19-18.7,24,6.22-8.8,12.48Zm4.35,7.36l14.51,5.67-6.21,11.48-8.3-17.15Zm24.5,58.33l5.93,8.64-34.98,2,29.04-10.65Z"/><polygon class="cls-6" points="831.73 1113.24 837.14 1111.26 836.4 1109.23 835.66 1107.21 830.25 1109.19 831.73 1113.24"/><polygon class="cls-6" points="833.73 1101.96 832.99 1099.93 827.58 1101.91 829.06 1105.96 834.47 1103.98 833.73 1101.96"/><polygon class="cls-6" points="728.61 1148.76 729.35 1150.79 734.76 1148.8 733.27 1144.76 727.86 1146.74 728.61 1148.76"/><polygon class="cls-6" points="730.6 1137.48 725.19 1139.46 725.94 1141.49 726.68 1143.51 732.09 1141.53 730.6 1137.48"/><polygon class="cls-6" points="818.7 1077.71 824.11 1075.73 823.37 1073.7 822.63 1071.67 817.22 1073.66 818.7 1077.71"/><polygon class="cls-6" points="820.7 1066.42 819.96 1064.4 814.55 1066.38 816.03 1070.43 821.44 1068.45 820.7 1066.42"/><polygon class="cls-6" points="715.58 1113.23 716.32 1115.25 721.73 1113.27 720.24 1109.22 714.83 1111.21 715.58 1113.23"/><polygon class="cls-6" points="717.57 1101.94 712.16 1103.93 712.91 1105.95 713.65 1107.97 719.06 1105.99 717.57 1101.94"/><path class="cls-8" d="m867.07,983.82l17.3-12.71c-8.53-9.2-15.93-22.63-22.99-35.82-11.01,4.29-18.74,11.79-24.16,19.09,12.68,9.98,22.78,19.81,29.86,29.44h0Z"/><path class="cls-8" d="m914.8,971.14c-4.02-14.09-1.4-29.24,7.11-41.17-10.33,1.82-19.71,7.17-26.53,15.15-.36-2.55-.73-5.1-1.1-7.65-6.96,4.92-11.66,12.41-13.08,20.81-2.7-1.81-5-1.98-8.4-2.96-.82,6.03-1.09,12.12-.81,18.19-5.74-.76-12.18-1.14-17.93-1.9,1.92,5.68,2.43,8.32,1.97,13.71-8.58-2.68-18.54.94-25.84,6.22,2.55,1.71,4.88,3.73,6.94,6-9.47,3.39-17.36,10.15-22.16,18.99,3.5-3.12,9.73-4.27,14.28-5.35,20.06-4.77,36.87,3.54,50.38,13.29l35.16-53.33Z"/><path class="cls-8" d="m938.02,1017.17c-4.91-17.82-3.25-41.09,6.89-56.2-8.53,2.54-16,7.78-21.29,14.94-.66-6.74-.16-13.53,1.47-20.1-7.8,5.06-14.51,11.61-19.76,19.29-7.05-.09-14.09.71-20.95,2.38,1.49,4.21,2.32,8.62,2.47,13.08-4.36.89-8.81,1.21-13.25.95.93,3.35,1.87,6.71,2.81,10.06-4.37,1.24-8.44,3.37-11.95,6.26,3.89.13,7.56,1.84,10.17,4.72-7.14-.18-14.16,1.86-20.08,5.85,4.74,1.74,9.29,3.97,13.57,6.66-7.77-.56-13.47,6.62-17.73,13.06,15.36-3.54,36.69,3.13,50.09,11.87l37.53-32.8Z"/><path class="cls-8" d="m957.49,1049.43c-6.8-12.01-6.47-32.28-1.28-44.69-4.12-.94-8.44-.24-12.05,1.95.13-5.16.75-10.29,1.85-15.33-7.91,4.16-11.19,13.49-15,21.6-.33.87-.87,1.64-1.57,2.26-1.23.7-2.66.96-4.06.72-1.4-.23-2.83.04-4.05.77-1.09.87-1.19,2.98.14,3.49-5.52-2.27-11.2-4.09-17.01-5.45.84,5.79,2,11.53,3.47,17.2-2.85.18-5.82.88-7.87,2.84-2.05,1.96-2.82,5.46-1.08,7.78-9.44,1.16-18.14,5.74-24.43,12.87,8.81-1.67,17.9-.98,26.35,1.99-3.75.59-6.82,3.28-7.9,6.92,12.24-2.29,27.75.89,38.11,8.13l26.37-23.05Z"/><path class="cls-8" d="m971.76,1091.74c-9.25-17.84-8.34-44.45-4-61.46-8.86,2.24-15.95,8.87-18.76,17.57-2.19-1.75-4.38-3.49-6.57-5.23-1.57,3.39-2.6,7-3.05,10.71-4.39-1.12-9.02-.87-13.27.71.54,2.19,1.09,4.38,1.63,6.57.22.63.26,1.31.13,1.96-.24.61-.65,1.14-1.17,1.54-4.51,4.09-9.01,8.19-13.52,12.28,9.56,1.31,19.31,1.18,28.73,3.33,10.47,2.55,20.52,6.6,29.84,12.02h0Z"/><path class="cls-8" d="m982.97,840.08c-2.13,3.62-.94,8.28,2.67,10.42l11.63,6.85c-1.24,10.4,6.19,19.83,16.58,21.07,10.4,1.24,19.83-6.19,21.07-16.58,1.24-10.4-6.19-19.83-16.58-21.07-4.72-.56-9.47.67-13.33,3.44l-11.63-6.85c-3.63-2.12-8.29-.9-10.42,2.72h0Zm-38.98,29.45c10.81-18.36,33.12-57.24,43.5-74.85,11.06-18.79,35.26-25.05,54.05-13.99,17.26,10.16,24.17,31.64,16.08,49.97,17.27,13.02,20.71,37.58,7.69,54.85-9.74,12.92-26.43,18.52-42,14.09-4.55,23.33-27.14,38.55-50.47,34.01-23.33-4.55-38.55-27.14-34.01-50.47.93-4.79,2.68-9.39,5.16-13.6h0Z"/><path class="cls-8" d="m1161.55,655.05l-61.87-36.37c-8.41-4.95-19.24-2.14-24.19,6.27-1.18,2.01-1.96,4.24-2.27,6.55l-7.58,54.86-37.09-12.86c-.07-13.79-3.05-23.77-8-24.46-6.79-.94-14.71,15.89-17.71,37.59-3,21.69.06,40.05,6.86,40.98,4.95.69,10.52-8.13,14.33-21.38l39.19-2.33-7.58,54.86c-1.34,9.66,5.4,18.58,15.07,19.92,2.31.32,4.67.18,6.93-.41l69.41-18.23c6.92-1.8,12.06-7.6,13.03-14.68l10.04-72.65c.99-7.08-2.39-14.05-8.56-17.66h0Zm5.77,17.27l-10.04,72.65c-.82,5.95-5.14,10.82-10.95,12.34-7.71,2.03-15.43,4.06-23.15,6.09-.78.2-1.54.4-2.31.6-10.16,2.66-20.31,5.33-30.45,8.01-.77.2-1.54.4-2.31.6-3.73.99-7.47,1.96-11.19,2.94-7.94,2.09-16.07-2.65-18.16-10.59-.5-1.9-.62-3.88-.35-5.82l7.65-55.41,2.27-16.44,7.65-55.41c1.12-8.13,8.62-13.82,16.76-12.7,1.95.27,3.82.92,5.51,1.92,3.32,1.95,6.66,3.92,9.98,5.86.68.4,1.38.81,2.06,1.22,9.04,5.32,18.09,10.63,27.14,15.95.68.4,1.37.8,2.06,1.21,6.88,4.05,13.75,8.1,20.63,12.14,5.18,3.04,8.02,8.9,7.2,14.85h0Zm-66.09,7.68c-9.42-2.6-18.84-5.19-28.27-7.78l-2.51,15.81-2.15,15.56-2.51,15.8c9.76.07,19.53.13,29.31.18l6.12-39.57Zm-35.98,45.69l-4.12,29.81c-1.12,8.14,4.57,15.64,12.7,16.76,1.94.27,3.91.15,5.81-.35,2.96-.78,5.92-1.56,8.88-2.34l6.12-44.29c-9.8.13-19.59.27-29.39.4h0Zm34.43-6.1c9.78.06,17.19.12,26.96.18l4.99-31.4c-9.42-2.59-16.49-5.19-25.91-7.78l-6.04,39Zm32.33-36.32l4.99-36.12-24.77-13.59-6.04,41.35c9.4,2.79,16.44,5.57,25.83,8.35h0Zm-24.2-53.28c-2.64-1.55-5.28-3.1-7.92-4.65-7.08-4.16-16.19-1.8-20.35,5.28-.99,1.69-1.64,3.56-1.91,5.5l-4.12,29.81c9.4,2.79,18.79,5.57,28.18,8.35l6.12-44.29Zm49.84,29.3c-6.19-3.64-10.19-5.77-16.39-9.41l-4.75,34.03c9.39,2.78,16.43,5.57,25.83,8.35l2.5-18.11c.82-5.95-2.01-11.81-7.19-14.85h0Zm-58.41,65.97l-6.19,43.17,28.23-7.45,4.99-36.11-27.04.4Zm32-5.48c9.77.06,17.18.12,26.95.18l3.03-23.65-25.07-7.35c-3.58,21.78-3.28,18.98-4.91,30.82h0Zm-5.24,39.76c6.95-1.82,11.49-2.82,18.44-4.65,5.81-1.52,10.13-6.39,10.95-12.34l2.5-18.11-27.03.4-4.86,34.7Z"/><path class="cls-2" d="m1091.51,550.36c-.52-2.3-.17-4.71.99-6.77,9.39-16.59,12.26-36.07,8.06-54.66-3.66-17.08-12.98-32.43-26.46-43.54-3.79-3.15-4.61-8.64-1.9-12.76,2.45-3.65,7.39-4.63,11.05-2.19.26.17.51.36.75.57,16.81,13.87,28.44,33.01,33.01,54.33,5.25,23.19,1.67,47.51-10.04,68.2-2.12,3.85-6.96,5.26-10.81,3.14-.27-.15-.54-.32-.79-.5-1.97-1.38-3.35-3.46-3.84-5.82h0Z"/><path class="cls-2" d="m1064.17,538.78c-.61-2.65-.04-5.43,1.55-7.63,14.64-20.54,9.86-49.06-10.68-63.7-.89-.63-1.8-1.23-2.73-1.8-4.2-2.58-5.78-7.91-3.68-12.36,1.81-4.01,6.53-5.79,10.54-3.98.28.13.56.27.83.43,15.22,9.14,25.95,24.21,29.6,41.58,4,18.32.16,37.09-10.54,51.49-2.6,3.56-7.58,4.34-11.14,1.74-.25-.18-.49-.38-.71-.59-1.54-1.36-2.6-3.17-3.03-5.18h0Z"/><path class="cls-2" d="m1119.91,558.59c-.46-2.05-.23-4.19.65-6.1,19.65-43.19,9.63-94.09-24.91-126.62-3.6-3.36-4.09-8.9-1.13-12.84,2.72-3.48,7.74-4.09,11.21-1.37.24.19.47.39.68.6,40.6,38.24,52.38,98.07,29.28,148.84-1.76,4.04-6.46,5.88-10.5,4.12-.28-.12-.55-.26-.82-.41-2.3-1.35-3.93-3.61-4.48-6.22h0Z"/><path class="cls-2" d="m1054.06,503.44c0,11.02-8.93,19.96-19.96,19.96-11.02,0-19.96-8.93-19.96-19.96,0-11.02,8.93-19.96,19.96-19.96h0c11.02,0,19.96,8.93,19.96,19.95h0Z"/><path class="cls-2" d="m959.83,394.26s32.96-5.06,50.94-34.13c-34.18-.01-55.83,25.36-55.83,25.36l4.89,8.77Z"/><path class="cls-2" d="m940.8,360.11s32.96-5.06,50.94-34.13c-34.17,0-55.82,25.36-55.82,25.36l4.88,8.77Z"/><path class="cls-2" d="m978.86,428.41s32.96-5.06,50.94-34.13c-34.18,0-55.82,25.36-55.82,25.36l4.89,8.77Z"/><path class="cls-2" d="m1018.3,382.33c13.22-5.55,25.94-12.26,37.99-20.04,44.95-28.67,55.56-58.47,55.56-58.47,0,0-30.93-6.66-78.96,16.47-12.95,6.16-25.34,13.44-37.03,21.76-7.92-2.89-16.41-3.87-24.78-2.85l-24.31,13.54c11.35-1.46,21.03,3.34,27.36,7.86-2.2,2.23-4.24,4.61-6.11,7.12l.54.97c12.55-8.22,27.2-12.66,42.21-12.78h7.58s-3.99,6.45-3.99,6.45c-8,12.7-19.48,22.82-33.08,29.17l.54.97c3.12-.27,6.22-.75,9.27-1.45.51,7.77-.5,18.52-7.71,27.4l24.3-13.54c5.27-6.58,8.9-14.32,10.61-22.57h0Zm35.87-46.37c-3.55-6.37-1.26-14.4,5.11-17.95,6.37-3.55,14.4-1.26,17.95,5.11,3.55,6.36,1.26,14.4-5.1,17.94-6.36,3.55-14.39,1.27-17.94-5.09,0,0,0,0,0-.01h0Z"/><path class="cls-2" d="m1074.67,324.49c-2.76-4.96-9.02-6.74-13.98-3.98-4.96,2.76-6.74,9.02-3.98,13.98,2.76,4.96,9.02,6.74,13.98,3.98h0c4.96-2.76,6.74-9.02,3.98-13.98h0Zm-14.93,8.32c-1.83-3.28-.65-7.43,2.63-9.26s7.43-.65,9.26,2.63c1.83,3.28.65,7.43-2.63,9.26,0,0,0,0,0,0-3.28,1.83-7.43.65-9.26-2.63h0Z"/><path class="cls-2" d="m956.81,251.2c-10.33-.04-18.69-8.41-18.7-18.74l-11.88-2.44c-.2.44-.42.87-.66,1.28-4.45,7.64-14.26,10.23-21.9,5.77-7.64-4.45-10.23-14.26-5.77-21.9.01-.02.03-.04.04-.07.85-1.45,1.92-2.75,3.18-3.86l-5.77-10.83c-6.93,1.33-13.63-3.22-14.95-10.15-.58-3.04-.04-6.19,1.53-8.86,3.57-6.09,11.4-8.13,17.49-4.56,6.09,3.57,8.13,11.4,4.56,17.49h0c-.55.92-1.21,1.78-1.96,2.54l5.77,10.85c8.55-2.21,17.27,2.94,19.48,11.49.29,1.12.46,2.27.5,3.42l11.86,2.43c4.08-9.51,15.09-13.92,24.6-9.84s13.92,15.09,9.84,24.6c-2.28,5.33-6.9,9.3-12.51,10.75-1.55.4-3.14.61-4.74.61h0Zm.04-27.68c-3.17,0-6.1,1.68-7.7,4.41h0c-2.48,4.25-1.04,9.7,3.2,12.18,4.25,2.48,9.7,1.04,12.18-3.2s1.04-9.7-3.2-12.18c-1.36-.79-2.9-1.21-4.47-1.21h0Zm-51.44-4.01c-2.04,3.5-.86,8,2.64,10.04,3.5,2.04,8,.87,10.05-2.62,2.05-3.49.88-7.99-2.61-10.04,0,0-.01,0-.02-.01-3.51-2.05-8.01-.87-10.07,2.63h0Zm-15.23-26.89c2.62,1.53,5.99.65,7.52-1.97,1.53-2.62.65-5.99-1.97-7.52-1.25-.73-2.75-.94-4.15-.57-1.41.36-2.62,1.28-3.35,2.54-1.53,2.62-.65,5.98,1.96,7.52h0Z"/><rect class="cls-2" x="877.25" y="243.83" width="6.94" height="42.21" transform="translate(102.27 754.71) rotate(-48.92)"/><path class="cls-2" d="m885.98,293.31l-34.08-29.71c-4.2-3.66-5.66-8.81-3.3-11.53l3.34-3.83,49.25,42.93-3.34,3.84c-2.37,2.71-7.69,1.95-11.87-1.69h0Z"/><path class="cls-2" d="m892.51,260.65c1.32,1.16,3.33,1.04,4.49-.28,1.16-1.32,1.04-3.33-.28-4.49,0,0-.02-.01-.02-.02l-9.15-7.98c-.64-.55-1.47-.83-2.31-.77-1.75.12-3.08,1.65-2.95,3.4.06.84.45,1.62,1.08,2.17l9.15,7.98Zm13.91-132.09l105.9,92.33-74.48,85.42-105.9-92.33,74.48-85.43Zm98.96,92.41l-98.08-85.51-60.79,69.73,98.09,85.51,60.79-69.73Z"/><path class="cls-4" d="m746.57,42.08c-2.57,8.28,2.06,17.08,10.34,19.65,8.28,2.57,17.08-2.06,19.65-10.34,2.57-8.28-2.06-17.08-10.34-19.65-8.28-2.57-17.08,2.06-19.65,10.34h0Z"/><path class="cls-4" d="m731.53,60.1l2.74-.62c2.34-.53,4.77-.43,7.06.28l23.33,7.24c2.29.71,4.73.81,7.06.28l3.02-.68c15.7-3.55,28.31-15.21,33.08-30.59.88-3.04,3.78-5.05,6.94-4.8,3.57.37,6.16,3.56,5.79,7.13-.04.43-.13.85-.26,1.26-6.2,19.96-22.58,35.11-42.97,39.72l-2.47.56c-2.38.54-4.29,2.31-5.01,4.64l-12.29,39.6c-.36,1.15-.62,2.34-.77,3.54l-.71,5.66c-2.57,20.39-6.91,40.52-12.98,60.16-1.19,4.05-5.12,6.66-9.31,6.19-4.68-.6-7.98-4.88-7.38-9.56.07-.54.19-1.07.36-1.58,4.55-13.82,8.66-27.77,10.47-42.2l2.59-20.63c.16-1.3-.76-2.48-2.05-2.65-1.14-.14-2.22.55-2.56,1.65l-1.04,3.36c-6.07,19.64-13.85,38.72-23.23,57.01-1.95,3.9-6.47,5.75-10.6,4.35-4.44-1.6-6.73-6.49-5.13-10.93.12-.34.27-.68.43-1,9.02-17.58,16.49-35.92,22.32-54.8l1.64-5.31h0s13.4-43.17,13.4-43.17c.11-.36-.09-.75-.46-.86-.12-.04-.25-.04-.38,0-14.83,4.05-26.58,15.38-31.15,30.06-.86,3.02-3.72,5.04-6.86,4.83-3.57-.32-6.21-3.48-5.89-7.05.04-.46.13-.91.27-1.34,6.2-19.97,22.58-35.11,42.97-39.72h0Z"/><path class="cls-4" d="m597.48,20.02c0,8.67-7.03,15.7-15.7,15.7-8.67,0-15.7-7.03-15.7-15.7,0-8.67,7.03-15.7,15.7-15.7,8.67,0,15.7,7.03,15.7,15.7h0Z"/><path class="cls-4" d="m637.41,0c-3.58,0-6.48,2.9-6.48,6.48h0c0,15.21-10.92,28.22-25.89,30.85-4.25.75-8.56,1.13-12.88,1.12h-20.75c-4.32,0-8.63-.38-12.88-1.12-14.97-2.63-25.89-15.64-25.89-30.84-.02-3.58-2.93-6.47-6.52-6.46-3.56.02-6.44,2.9-6.46,6.46,0,21.5,15.43,39.89,36.61,43.62l5.27.93c.65.12,1.13.68,1.13,1.35v113.73c-.07,4.7,3.58,8.62,8.27,8.89,4.71.14,8.65-3.56,8.79-8.27,0-.09,0-.17,0-.26v-64.52c0-1.13.9-2.05,2.04-2.06,1.13,0,2.05.9,2.06,2.04,0,0,0,.02,0,.03v64.16c-.07,4.7,3.58,8.62,8.27,8.89,4.71.14,8.65-3.56,8.8-8.27,0-.09,0-.17,0-.26V52.38c0-.66.48-1.23,1.13-1.35l5.27-.93c21.17-3.73,36.61-22.12,36.61-43.62C643.9,2.91,641,0,637.42,0c0,0,0,0,0,0h0Z"/><path class="cls-4" d="m423.45,42.81c2.57,8.28-2.06,17.08-10.34,19.65-8.28,2.57-17.08-2.06-19.65-10.34-2.57-8.28,2.06-17.08,10.34-19.65,0,0,0,0,0,0,8.28-2.57,17.08,2.06,19.65,10.34h0Z"/><path class="cls-4" d="m438.49,60.83l-2.75-.62c-2.34-.53-4.77-.43-7.06.28l-23.33,7.24c-2.29.71-4.72.81-7.06.28l-3.02-.68c-15.7-3.56-28.31-15.22-33.09-30.59h0c-.88-3.05-3.78-5.05-6.94-4.8-3.57.37-6.16,3.56-5.79,7.13.04.43.13.85.26,1.25,6.2,19.96,22.58,35.11,42.97,39.72l2.47.56c2.38.54,4.29,2.3,5.01,4.63l12.29,39.6c.36,1.15.61,2.34.77,3.54l.71,5.66c2.57,20.39,6.91,40.52,12.98,60.16,1.19,4.05,5.12,6.66,9.31,6.19,4.68-.6,7.98-4.89,7.38-9.57-.07-.54-.19-1.06-.36-1.58-4.55-13.81-8.66-27.77-10.48-42.21l-2.59-20.63c-.16-1.3.76-2.48,2.05-2.65,1.14-.14,2.22.55,2.56,1.65l1.04,3.35c6.07,19.64,13.84,38.72,23.23,57.01,1.95,3.9,6.47,5.75,10.6,4.35,4.43-1.6,6.73-6.49,5.14-10.92-.12-.34-.27-.68-.44-1-9.02-17.58-16.49-35.92-22.33-54.8l-1.64-5.31h0l-13.4-43.17c-.11-.36.09-.75.46-.86.12-.04.25-.04.38,0,14.83,4.05,26.58,15.38,31.15,30.06.86,3.02,3.72,5.04,6.86,4.83,3.57-.32,6.21-3.48,5.89-7.05-.04-.46-.13-.91-.26-1.34-6.2-19.96-22.58-35.11-42.97-39.72h0Z"/><path class="cls-9" d="m182.94,585.02l16.6.8,16.71.77,15.35.69,15.35.69c.33-9.76,1.23-19.55,2.49-29.22,1.34-9.57,3.04-19.25,5.16-28.82,1.07-4.72,2.17-9.35,3.46-14.14,1.35-4.7,2.67-9.38,4.15-14,3.01-9.36,6.3-18.68,10.1-27.57,3.62-9.01,7.73-17.82,12.3-26.38,4.61-8.79,9.43-17.19,14.64-25.35,5.34-8.32,10.84-16.45,16.82-24.04,5.95-7.69,12.22-15.14,18.83-22.34,6.58-7.2,13.52-14.06,20.81-20.55,7.19-6.58,14.64-12.79,22.39-18.74,7.8-5.97,15.71-11.51,23.97-16.83l-8.19-12.81-8.22-12.92-8.91-14.07-8.89-14.19-9.92-15.35-9.77-15.4c-10.65,6.73-21.04,13.97-31.15,21.74-10.02,7.66-19.68,15.8-29.11,24.42-9.4,8.5-18.34,17.32-26.99,26.74-8.58,9.29-16.69,18.89-24.42,29.07-7.83,10.01-15.15,20.42-21.93,31.17-6.73,10.58-13.13,21.61-19.02,32.85-5.84,11.22-11.25,22.66-16.12,34.4-4.68,11.81-9.06,23.53-12.96,35.79-1.92,5.96-3.73,12.11-5.42,18.23-1.58,6.2-3.1,12.16-4.44,18.4-2.8,12.63-5.11,25.04-6.79,37.48-1.64,12.65-2.79,25.19-3.3,37.88l18.11.63,18.32,1Z"/><path class="cls-3" d="m392.91,898.43l8.26-12.97c-8.09-5.18-16.15-10.81-23.93-16.85-7.61-5.86-15.08-12.2-22.34-18.83-3.59-3.27-7.06-6.68-10.59-10.17-3.44-3.31-6.75-6.99-10.01-10.45-6.62-7.35-12.91-14.89-18.84-22.54-5.9-7.76-11.52-15.71-16.64-23.9-5.33-8.22-10.25-16.7-14.72-25.41-4.53-8.68-8.67-17.58-12.28-26.51-3.73-9.01-6.99-18.14-9.95-27.35-2.9-9.44-5.42-18.89-7.52-28.44-2.07-9.45-3.81-19.09-5.05-28.76-1.16-9.58-2.07-19.45-2.48-29.12l-15.28.62-15.28.62-16.63.76-16.72.68-18.16.83-18.24.75c.43,12.66,1.61,25.24,3.24,37.8,1.57,12.59,3.77,25.01,6.4,37.41,2.74,12.38,6,24.63,9.81,36.84,3.78,12.1,8.08,23.99,12.89,35.67,4.79,11.73,10.19,23.28,15.97,34.52,5.92,11.2,12.24,22.19,19.1,32.91,6.73,10.65,13.97,21.06,21.71,31.22,7.65,9.97,15.81,19.56,24.5,29.03,4.24,4.65,8.59,9.28,13.03,13.87,4.51,4.46,9.11,8.79,13.77,13.1,9.48,8.7,19.14,16.79,28.99,24.4,10,7.87,20.4,15.23,31.15,22.04l9.79-15.38,9.78-15.4,9.09-14.08,9.03-14.07,8.14-12.84Z"/><path class="cls-6" d="m765.55,957.4l-7.73-14.83-7.67-14.84-6.98-13.48-7.14-13.65c-8.6,4.4-17.42,8.63-26.51,12.28-8.95,3.72-18.15,6.94-27.5,9.99-4.64,1.35-9.33,2.71-14,3.96-4.82,1.29-9.52,2.42-14.22,3.56-9.63,2.01-19.22,3.79-28.89,5.03-9.69,1.35-19.44,2.06-29.1,2.53-9.78.39-19.6.44-29.22,0-9.78-.39-19.48-1.37-29.16-2.68-9.64-1.33-19.29-2.97-28.67-5.03-9.57-2.06-19.03-4.62-28.33-7.68-9.29-2.96-18.49-6.41-27.48-10.12-8.99-3.72-17.75-7.83-26.52-12.38l-7.05,13.54-7.01,13.54-7.87,14.87-7.59,14.91-8.5,16.04-8.42,16.12c11.24,5.89,22.72,11.28,34.42,16.17,11.74,4.87,23.55,9.17,35.7,13.04,11.99,3.92,24.31,7.19,36.58,9.93,12.34,2.71,24.86,4.93,37.45,6.69,12.57,1.76,25.14,2.85,37.92,3.45,12.63.52,25.24.5,37.95.01,12.62-.59,25.29-1.63,38-3.35,12.35-1.62,24.89-3.74,37.43-6.52,6.08-1.39,12.25-2.82,18.48-4.48,6.01-1.6,12.24-3.47,18.25-5.3,12.16-3.8,24.1-8.19,35.72-12.96,11.77-4.8,23.23-10.18,34.47-15.95l-8.42-16.2-8.38-16.22Z"/><path class="cls-8" d="m998.8,621.84l-18.17-.82-16.71-.77-16.73-.65-15.33-.81-15.21-.61c-.53,9.7-1.31,19.47-2.65,29.04-1.34,9.58-3.04,19.25-5.18,28.94-.99,4.6-2.25,9.49-3.59,14.07-1.17,4.75-2.54,9.44-4.03,14.06-2.96,9.35-6.28,18.57-9.98,27.44-3.79,9.12-7.87,17.98-12.38,26.52-4.44,8.74-9.48,17.19-14.64,25.35-5.27,8.17-10.94,16.25-16.85,23.93-6.03,7.6-12.21,15.25-18.82,22.34-6.54,7.24-13.46,14.12-20.73,20.63-7.19,6.58-14.81,12.83-22.45,18.76-7.7,5.94-15.7,11.51-23.99,16.72l8.19,12.83,8.25,13.03,8.94,14.17,8.94,13.95,9.79,15.5,9.71,15.41c10.75-6.75,21.14-14.07,31.18-21.85,10.11-7.7,19.83-15.84,29.19-24.33,9.4-8.51,18.4-17.46,27.04-26.76,8.5-9.38,16.66-18.99,24.48-29.07,7.65-10.05,14.92-20.43,21.81-31.15,6.79-10.59,13.13-21.61,18.98-32.83,5.92-11.14,11.13-22.63,16.11-34.62,4.87-11.53,9.23-23.35,13.03-35.59,1.85-5.93,3.72-12.1,5.32-18.19,1.68-6.23,3.23-12.31,4.67-18.58,2.67-12.49,4.94-24.87,6.51-37.29,1.84-12.71,3-25.24,3.57-37.95l-18.27-.8Z"/><path class="cls-2" d="m770.46,307.66l-8.16,12.96c8.15,5.15,16.07,10.71,23.9,16.74,7.61,5.86,15.11,12.3,22.38,18.92l-.05.02c3.59,3.26,7.11,6.66,10.46,10.1,3.49,3.52,6.99,7.02,10.14,10.52,6.67,7.34,13.04,14.75,18.86,22.42,5.95,7.76,11.49,15.83,16.8,24.08,5.25,8.27,9.97,16.57,14.55,25.24,4.46,8.59,8.61,17.7,12.33,26.49,3.67,9.02,7.03,18.23,9.88,27.47,2.98,9.32,5.5,18.77,7.57,28.43,2.02,9.46,3.7,19.13,4.96,28.68,1.22,9.56,2.07,19.45,2.49,29.12l15.3-.52,15.38-.66,16.69-.77,16.65-.66,18.16-.84,18.19-.74c-.53-12.63-1.54-25.24-3.2-37.92-1.6-12.47-3.82-24.98-6.51-37.37-2.7-12.4-5.96-24.64-9.81-36.83-3.76-12-8.11-23.95-12.95-35.67-4.84-11.7-10.07-23.2-15.95-34.41-5.77-11.24-12.03-22.24-18.88-32.97-6.81-10.74-14.06-21.04-21.97-31.15-7.54-9.99-15.66-19.61-24.22-29.22-4.36-4.72-8.71-9.12-13.26-13.68-4.41-4.49-9.1-8.91-13.66-13.14-9.38-8.72-19.01-16.71-29.06-24.6-10.22-7.72-20.43-15-31.08-21.83l-9.74,15.37-9.93,15.31-8.98,14.06-8.95,14.16-8.34,12.88Z"/><path class="cls-4" d="m397.93,248.54l7.7,14.95,7.66,14.74,7.05,13.56,7.01,13.58c8.61-4.41,17.45-8.54,26.61-12.31,8.93-3.61,18.08-6.94,27.46-9.99,4.64-1.34,9.29-2.69,14.11-3.97,4.66-1.24,9.41-2.39,14.16-3.56,9.57-1.99,19.17-3.66,28.78-4.99,9.72-1.26,19.45-2.07,29.1-2.53,9.84-.4,19.56-.43,29.26.09,19.5.97,38.89,3.57,57.96,7.78,9.54,2.02,18.97,4.56,28.25,7.59,9.29,2.97,18.4,6.33,27.44,10.03,8.95,3.73,17.89,7.9,26.45,12.51l7.08-13.67,7.11-13.56,7.72-14.83,7.71-14.83,8.45-16.03,8.53-16.16c-11.31-5.99-22.72-11.28-34.49-16.26-11.66-4.78-23.46-9.2-35.59-13.08-12.12-3.77-24.33-7.07-36.79-9.86-12.34-2.71-24.8-5.06-37.43-6.59-12.48-1.79-25.1-2.87-37.87-3.48-12.48-.56-25.29-.48-37.94,0-12.62.59-25.21,1.71-37.84,3.3-12.48,1.55-25,3.77-37.43,6.52-6.12,1.41-12.43,2.98-18.44,4.58-6.23,1.66-12.22,3.37-18.29,5.2-12.26,3.82-24.22,8.12-35.71,12.96-11.85,4.93-23.39,10.23-34.52,15.97l8.34,16.11,8.42,16.2Z"/><path class="cls-7" d="m865.32,683.83c-.04.17-.07.35-.12.53l-.32.19s-.05-.01-.07-.01c.18-.23.35-.47.51-.71Z"/><path class="cls-1" d="m865.32,683.83c-.04.17-.07.35-.12.53l-.32.19s-.05-.01-.07-.01c.18-.23.35-.47.51-.71Z"/></g></g></g></svg>