<?xml version="1.0" encoding="UTF-8"?><svg id="Layer_1" xmlns="http://www.w3.org/2000/svg" viewBox="0 0 251.65 251.65"><defs><style>.cls-1{fill:#fff;}.cls-2{fill:#2685b5;}.cls-3{fill:#006da4;}</style></defs><g id="Layer_2"><g id="Layer_1-2"><g id="IEEE_Day"><path class="cls-2" d="M0,125.82C0,56.33,56.33,0,125.82,0s125.82,56.33,125.82,125.82-56.33,125.82-125.82,125.82S0,195.31,0,125.82"/><path class="cls-3" d="M184.39,43.17c-9.65-17.61-22.32-30.84-36.7-37.6,4.58,8.26,8.42,19.08,11.51,31.61,8.53,1.41,16.95,3.41,25.2,5.98"/><path class="cls-3" d="M168.53,125.82c0,9.64-.3,19.29-.88,28.76,11.68-1.09,23.3-2.81,34.8-5.16,1.88-15.68,1.88-31.53,0-47.21-11.5-2.35-23.11-4.07-34.8-5.16.58,9.47.88,19.12.88,28.76"/><path class="cls-3" d="M200.44,89.2c-1.97-10.47-4.93-20.73-8.84-30.64-9.59-3.72-19.5-6.54-29.6-8.44,2.06,10.77,3.63,22.41,4.72,34.52,11.81,1.06,23.18,2.58,33.73,4.56"/><path class="cls-3" d="M51.21,162.45c1.97,10.47,4.93,20.73,8.84,30.64,9.59,3.71,19.5,6.54,29.6,8.44-2.05-10.77-3.63-22.41-4.71-34.52-11.81-1.06-23.18-2.58-33.73-4.56"/><path class="cls-3" d="M162,201.54c10.11-1.9,20.01-4.72,29.6-8.44,3.91-9.91,6.87-20.17,8.84-30.64-10.55,1.98-21.92,3.5-33.73,4.56-1.09,12.11-2.66,23.76-4.72,34.52"/><path class="cls-3" d="M125.82,168.82c-9.54,0-19.08-.3-28.46-.87,1.11,11.95,2.87,23.83,5.3,35.58,15.39,1.83,30.93,1.83,46.32,0,2.42-11.75,4.19-23.63,5.3-35.58-9.38.57-18.92.87-28.46.87"/><path class="cls-3" d="M145.93,216.21c-6.57.64-13.28.99-20.11.99s-13.54-.34-20.11-.99c6.09,22.34,13.82,34.91,20.11,34.91s14.02-12.57,20.11-34.91"/><path class="cls-3" d="M50.82,202.36c-15.74-6.83-29.26-15.72-39.66-26.12,12.84,29.04,36.18,52.16,65.33,64.74-10.16-10.13-18.91-23.27-25.68-38.62"/><path class="cls-3" d="M36.53,146.42c-.67-6.72-1-13.58-1.01-20.59,0-7,.34-13.86,1.01-20.59C13.51,111.43.53,119.37.53,125.82s12.98,14.4,35.99,20.59"/><path class="cls-3" d="M105.71,35.44c6.57-.64,13.28-.99,20.11-.99s13.54.34,20.11.99C139.84,13.1,132.11.53,125.82.53s-14.01,12.57-20.11,34.91"/><path class="cls-3" d="M50.82,49.29c6.77-15.35,15.52-28.49,25.68-38.62C47.34,23.25,24.01,46.37,11.16,75.41c10.4-10.4,23.91-19.29,39.65-26.12"/><path class="cls-3" d="M89.65,50.11c-10.11,1.9-20.01,4.72-29.6,8.44-3.91,9.91-6.87,20.17-8.84,30.64,10.55-1.98,21.93-3.5,33.73-4.56,1.09-12.11,2.66-23.76,4.71-34.52"/><path class="cls-3" d="M5.48,147.78c6.91,15.06,20.72,28.27,39.13,38.19-2.74-8.6-4.86-17.39-6.33-26.29-13.04-3.16-24.29-7.13-32.8-11.9"/><path class="cls-3" d="M103.96,246.07c-4.58-8.26-8.42-19.08-11.51-31.61-8.53-1.41-16.95-3.41-25.2-5.98,9.65,17.61,22.32,30.84,36.7,37.59"/><path class="cls-3" d="M147.69,246.07c14.38-6.75,27.05-19.98,36.7-37.59-8.25,2.58-16.67,4.58-25.2,5.98-3.09,12.53-6.93,23.35-11.51,31.61"/><path class="cls-3" d="M246.16,147.78c-8.51,4.77-19.76,8.74-32.8,11.9-1.47,8.91-3.59,17.69-6.33,26.29,18.42-9.92,32.23-23.14,39.13-38.19"/><path class="cls-3" d="M200.83,202.36c-6.77,15.35-15.52,28.48-25.68,38.62,29.16-12.58,52.49-35.7,65.33-64.74-10.4,10.4-23.92,19.29-39.66,26.12"/><path class="cls-3" d="M246.16,103.86c-6.91-15.06-20.72-28.27-39.13-38.19,2.74,8.6,4.86,17.39,6.33,26.29,13.04,3.16,24.29,7.13,32.8,11.9"/><path class="cls-3" d="M96.37,155.58c9.28.61,19.11.95,29.46.95s20.17-.34,29.46-.95c.61-9.37.96-19.3.96-29.76s-.35-20.38-.96-29.76c-9.29-.61-19.11-.95-29.46-.95s-20.17.34-29.46.95c-.61,9.37-.96,19.29-.96,29.76s.35,20.38.96,29.76"/><path class="cls-3" d="M125.82,82.83c9.54,0,19.08.3,28.46.87-1.11-11.95-2.88-23.83-5.3-35.58-15.39-1.83-30.94-1.83-46.32,0-2.42,11.75-4.19,23.63-5.3,35.58,9.38-.57,18.92-.87,28.46-.87"/><path class="cls-3" d="M103.96,5.57c-14.38,6.75-27.05,19.98-36.7,37.6,8.25-2.58,16.67-4.58,25.2-5.98,3.09-12.53,6.93-23.35,11.51-31.61"/><path class="cls-3" d="M5.48,103.86c8.51-4.77,19.76-8.74,32.8-11.9,1.47-8.91,3.59-17.69,6.33-26.29-18.42,9.92-32.23,23.14-39.13,38.19"/><path class="cls-3" d="M83.12,125.82c0-9.64.3-19.28.88-28.76-11.68,1.09-23.3,2.81-34.8,5.16-1.88,15.68-1.88,31.53,0,47.21,11.5,2.35,23.11,4.07,34.8,5.16-.58-9.47-.88-19.12-.88-28.76"/><path class="cls-3" d="M215.12,105.23c.67,6.72,1,13.58,1.01,20.59,0,7-.34,13.86-1.01,20.59,23.01-6.19,35.99-14.14,35.99-20.59s-12.98-14.4-35.99-20.59"/><path class="cls-3" d="M200.83,49.29c15.74,6.83,29.26,15.72,39.65,26.12-12.84-29.04-36.18-52.16-65.33-64.74,10.16,10.13,18.91,23.27,25.68,38.62"/><path class="cls-1" d="M23.32,156.54c-1.22.31-2.07.57-3.29.93l-4.68,1.4c-.41.12-.69.21-1.09.34l.15.49c.29.99.64,1.92.89,2.63l-.07.11c-.7.16-1.19.29-1.91.47l-.12-.07s-.13-.49-.23-.82l-.81-2.71c-.18-.59-.46-1.47-.65-2.06l.07-.12c1.1-.31,1.88-.55,2.98-.87,2.66-.8,6.8-2.08,7.92-2.43l.1.06c.28.94.5,1.61.81,2.54l-.07.12Z"/><path class="cls-1" d="M17.83,169.21c-.61.18-1.05.32-1.65.53l-.14-.05c-.75-.57-1.26-1.94-1.27-1.97-1.35-3.63,1.89-4.92,2.81-5.26,3.1-1.15,4.84-.12,5.51,1.7.27.65.31,1.38.1,2.06-.34,1.05-1.21,1.76-2.82,2.35-.29.11-.51.19-.8.28l-.13-.07-1.42-3.83c-1.18.44-1.8,1.4-1.33,2.67.21.61.62,1.13,1.17,1.46l-.02.13ZM20.08,166.11c.9-.34,1.67-.76,1.41-1.46-.22-.6-1.17-.58-2.05-.25l.64,1.72Z"/><path class="cls-1" d="M27.01,174.04c-1.48.25-2.54.37-4.04.59l-2.23.34c-.91.14-1.53.26-2.46.4l-.14-.06-.25-.57c-.25-.57-.44-.95-.73-1.5l.04-.14,3.21-2.64c1.34-1.1,2.27-1.84,3.55-2.99l.12.03c.4.82.68,1.4,1.11,2.19l-.04.14c-1.07.69-1.77,1.26-2.79,2.01l-2.11,1.56c3.82-.82,4.67-.97,5.85-1.31l.14.07.22.49c.22.49.37.83.62,1.3l-.06.1Z"/><path class="cls-1" d="M24.47,183c-.59.25-1,.46-1.57.74l-.15-.03c-.82-.47-1.5-1.76-1.52-1.79-1.81-3.42,1.22-5.13,2.09-5.59,2.92-1.55,4.78-.76,5.69.96.35.61.48,1.33.37,2.02-.2,1.09-.97,1.9-2.49,2.71-.27.15-.48.25-.76.38l-.14-.06-1.91-3.61c-1.11.59-1.6,1.62-.96,2.82.29.58.77,1.04,1.35,1.3v.13ZM26.29,179.63c.85-.45,1.56-.97,1.2-1.64-.3-.56-1.24-.42-2.06.02l.86,1.62Z"/><path class="cls-1" d="M23.48,185.48c1.18-.67,2.01-1.13,3.16-1.83,1.33-.78,2.62-1.64,3.86-2.56l.13.03c.51.67,1.07,1.29,1.68,1.87l-.03.14c-.51.29-.86.5-1.36.81l-.29.18c.88-.21,2.09-.43,2.7.57.09.15.16.3.21.47l-.05.14c-.93.39-1.56.68-2.46,1.12l-.12-.06c.09-.28.07-.58-.07-.84-.61-.99-1.7-.4-2.76.25-1.29.78-2.05,1.29-3.15,2l-.13-.03-.35-.57c-.35-.57-.61-.97-1-1.54l.03-.13Z"/><path class="cls-1" d="M30.08,195.67l-.32-.46c-.36-.52-.64-.89-1.03-1.4l.02-.15.52-.36c-.73-.1-1.38-.51-1.79-1.13-.59-.85-.62-2.24.97-3.34,1.4-.97,2.83-.8,4.86,1.19l.25.25.12-.08c.46-.32.77-.69.18-1.55-.43-.6-1.03-1.07-1.72-1.34v-.13c.51-.3.89-.54,1.39-.87h.16c.79.54,1.48,1.21,2.03,1.99,1.6,2.31.06,3.45-.81,4.06-.28.2-1.47.98-2.33,1.57-1.12.77-1.97,1.46-2.36,1.79l-.15-.04ZM32.35,191.14c-.48-.55-1.27-1.27-2.32-.54-.42.29-.81.84-.44,1.38.21.27.52.45.87.47l1.9-1.31Z"/><path class="cls-1" d="M34.64,197.59l.43,1.31c.73,2.18.71,3.07-.28,3.86-1.2.96-2.96.96-4.64-1.15-1.26-1.58-1.29-3.13-.3-3.92.98-.79,2.03-.28,2.51-.05-.07-.34-.1-.68-.11-1.02l.11-.13c.8-.15,1.35-.24,2.15-.34-.24-1.01.16-2.07,1-2.68,1.15-.92,2.88-1.16,4.35.69l2.27,2.85-.03.13c-.43.3-.74.51-1.16.85l-.13-.03c-.22-.33-.37-.57-.6-.88-.03.6-.33,1.16-.81,1.53-.78.62-2.43,1.2-3.91-.66-.12-.15-.23-.32-.33-.49-.18.02-.3.05-.46.08l-.07.07ZM31.29,199.19c-.58.46-.39,1.14-.05,1.56.52.65,1.14.62,1.48.34.59-.47.28-1.04.05-2.09-.88-.18-1.21-.04-1.49.18M36.36,196.89c.39.49,1,.31,1.74-.28.88-.7.98-1.29.69-1.65-.39-.49-1.15-.15-1.78.36-.64.51-1.01,1.12-.64,1.58"/><path class="cls-1" d="M36.2,203.24c1.12-.93,1.9-1.57,2.99-2.54,1.11-.94,2.16-1.94,3.15-3h.13c.74.63,1.27,1.06,2.05,1.63v.14c-1.02.85-1.73,1.46-2.74,2.34-1.41,1.25-2.39,2.13-3.71,3.48h-.13c-.09-.09-.38-.45-.57-.67-.42-.48-.74-.79-1.19-1.24v-.14ZM43.68,196.74l.43-.38c.39-.35.65-.6,1.02-.97h.14c.64.6,1.1,1,1.76,1.55v.14c-.37.3-.63.53-.99.84l-.49.43h-.13c-.62-.58-1.09-.96-1.75-1.48v-.14Z"/><path class="cls-1" d="M40.95,208.48l-.57-.58c-.44-.44-.75-.73-1.21-1.15v-.14c.91-.85,1.55-1.44,2.43-2.31,1.29-1.27,2.19-2.21,3.39-3.57h.13c.77.56,1.31.95,2.11,1.47v.14c-.28.25-.48.42-.74.69.84-.04,1.67.25,2.3.81.31.31.5.71.55,1.14.06.79-.53,1.6-1.42,2.48-1.28,1.26-2.79,2.8-3.88,4.01h-.15s-.56-.58-.56-.58c-.42-.43-.74-.72-1.2-1.14v-.13c.44-.4,1.32-1.27,2.08-2.02l1.04-1.02c1.2-1.18,1.64-1.74,1.17-2.21-.28-.23-.65-.33-1-.27-.23.21-.38.36-.6.57-1.12,1.1-3.35,3.43-3.71,3.83h-.14Z"/><path class="cls-1" d="M48.74,212.55l.66,1.21c1.1,2.02,1.24,2.9.4,3.86-1.01,1.15-2.74,1.46-4.77-.32-1.52-1.34-1.82-2.86-.98-3.81.83-.95,1.95-.63,2.46-.49-.12-.32-.22-.65-.28-.99l.08-.14c.76-.29,1.29-.48,2.06-.71-.41-.96-.21-2.06.51-2.81.97-1.11,2.63-1.65,4.41-.09l2.74,2.41v.13c-.37.37-.65.63-1,1.04h-.13c-.27-.29-.46-.5-.74-.77.08.6-.12,1.2-.53,1.64-.66.75-2.18,1.61-3.97.03-.15-.13-.29-.27-.41-.42-.17.04-.28.1-.44.16l-.05.08ZM45.72,214.71c-.49.55-.18,1.19.23,1.55.63.55,1.23.41,1.52.08.5-.57.09-1.07-.32-2.07-.89-.02-1.19.17-1.43.44M50.31,211.56c.47.41,1.04.13,1.67-.58.75-.85.74-1.44.39-1.75-.47-.41-1.15.05-1.69.67-.54.61-.8,1.28-.36,1.67"/><path class="cls-1" d="M56.25,221.67c.78-1.05,4.82-6.66,5.58-7.73-.73-.5-1.23-.87-1.98-1.33l-.02-.14c.44-.53.72-.91,1.14-1.46h.13s2.92,2.06,2.92,2.06c1.16.82,1.98,1.39,3.15,2.17v.13c-.42.52-.73.9-1.14,1.45l-.14.02c-.59-.48-1.01-.78-1.63-1.21l-.23-.16-1.19,1.68c-1.6,2.25-2.71,3.83-4.23,6.11l-.14.02-.63-.45c-.57-.41-.98-.68-1.56-1.05l-.02-.14Z"/><path class="cls-1" d="M66.77,226.09c-.38.51-.64.89-.99,1.43l-.14.05c-.95,0-2.18-.77-2.21-.79-3.28-2.06-1.5-5.05-.98-5.88,1.75-2.8,3.76-3.04,5.41-2.01.61.35,1.08.91,1.33,1.57.37,1.04.11,2.13-.8,3.59-.16.26-.29.46-.46.71l-.15.02-3.46-2.17c-.67,1.07-.57,2.21.58,2.93.54.36,1.18.51,1.82.45l.06.12ZM66.66,222.27c.51-.82.86-1.62.22-2.02-.54-.34-1.28.26-1.78,1.05l1.55.97Z"/><path class="cls-1" d="M71.61,231.05c-.57-.08-1.12-.25-1.64-.52-2.35-1.28-2.13-3.58-1.14-5.4,1.05-1.94,2.92-3.9,5.62-2.43.48.25.9.59,1.24,1.01v.15c-.37.57-.62.95-.95,1.53h-.12c-.12-.38-.37-.68-.7-.88-.98-.53-1.94.12-2.72,1.54-.84,1.55-.75,2.61.28,3.17.34.17.71.25,1.09.22l.05.08c-.33.54-.56.92-.88,1.48l-.14.05Z"/><path class="cls-1" d="M73,231.89c.97-1.93,1.61-3.31,2.51-5.27.94-2.03,1.61-3.47,2.39-5.58l.1-.06c.92.27,1.57.42,2.51.66l.04.11c-.72,1.48-1.21,2.52-1.9,4.02l-.1.21c.57-.18,1.52-.48,2.47-.04,1.78.83.89,2.75.49,3.61l-.89,1.93c-.55,1.19-.89,2.04-1.4,3.25l-.11.05c-.12-.05-.57-.28-.85-.41-.5-.23-.89-.38-1.41-.58l-.03-.12c.46-.96.78-1.64,1.22-2.59l.54-1.16c.81-1.75,1.08-2.37.46-2.66-.32-.13-.68-.11-.98.05l-.09.05-.09.19c-.3.64-2.24,4.96-2.41,5.43l-.12.05c-.15-.07-.53-.26-.79-.39-.55-.25-.95-.4-1.5-.62l-.05-.13Z"/><path class="cls-1" d="M83.31,236.44l-.76-.29c-.58-.22-.99-.35-1.58-.54l-.06-.13c.47-1.15.8-1.95,1.24-3.11.64-1.7,1.06-2.92,1.58-4.66l.11-.06c.94.2,1.59.32,2.53.46l.06.13c-.15.35-.25.59-.39.94.75-.39,1.62-.47,2.42-.22.41.15.75.43.97.8.39.69.19,1.68-.25,2.84-.63,1.68-1.36,3.72-1.84,5.26l-.14.05-.75-.28c-.57-.21-.97-.35-1.56-.54l-.04-.12c.22-.54.65-1.69,1.03-2.7l.51-1.36c.59-1.58.76-2.26.14-2.5-.35-.09-.72-.03-1.03.17-.13.29-.2.48-.31.78-.55,1.47-1.61,4.51-1.77,5.03l-.13.06Z"/><path class="cls-1" d="M94.79,230.99c2.42.71,3.1,2.55,2.26,5.41-1.07,3.64-3.29,3.7-4.75,3.27-2.23-.65-3.17-2.31-2.24-5.48.63-2.15,2.09-3.97,4.72-3.2M92.74,238.06c.75.22,1.25-.64,1.81-2.57.39-1.33.58-2.67-.19-2.9-.83-.25-1.4,1.11-1.77,2.38-.38,1.29-.7,2.85.15,3.1"/><path class="cls-1" d="M97.34,240.8c.42-1.58.7-2.71,1.08-4.3.58-2.45,1.25-5.34,1.56-7.31l.1-.08c.94.07,1.59.09,2.54.13l.07.12c-.4,1.64-.73,3.04-1.04,4.36-.27,1.15-1.47,6.63-1.66,7.66l-.12.07c-.14-.03-.54-.14-.79-.2-.62-.15-1.06-.22-1.69-.33l-.06-.11Z"/><path class="cls-1" d="M106.54,233.76c2.48.44,3.36,2.19,2.85,5.12-.66,3.73-2.86,4.04-4.35,3.78-2.29-.41-3.41-1.95-2.83-5.2.39-2.2,1.64-4.18,4.34-3.7M105.29,241.01c.77.14,1.17-.77,1.52-2.75.24-1.37.28-2.72-.51-2.86-.85-.15-1.27,1.25-1.5,2.56-.23,1.32-.38,2.9.49,3.06"/><path class="cls-1" d="M112.93,241.15l1.23.61c2.06,1.01,2.69,1.65,2.55,2.91-.16,1.53-1.39,2.78-4.08,2.5-2.02-.21-3.14-1.28-3-2.53.13-1.25,1.22-1.65,1.72-1.82-.29-.19-.56-.41-.8-.64v-.17c.43-.67.76-1.13,1.26-1.77-.89-.54-1.36-1.56-1.21-2.59.15-1.46,1.19-2.87,3.54-2.62l3.62.38.07.11c-.09.52-.16.89-.21,1.42l-.11.07c-.39-.07-.66-.14-1.05-.19.41.45.6,1.05.52,1.65-.1.99-.85,2.57-3.22,2.32-.2-.02-.39-.06-.58-.11-.11.14-.17.24-.27.38v.1ZM111.72,244.65c-.08.73.54,1.08,1.08,1.13.83.09,1.24-.38,1.29-.82.08-.75-.54-.93-1.45-1.5-.74.5-.88.83-.91,1.19M113.63,239.43c.62.07.92-.49,1.02-1.44.12-1.12-.23-1.6-.7-1.65-.62-.07-.91.71-1,1.52-.09.81.09,1.51.67,1.57"/><path class="cls-1" d="M118.09,235.47c.96.02,1.65,0,2.6-.02l.13.1c.19,1.09.34,1.84.57,2.92l.53,2.49.76-2.61c.28-.97.5-1.65.73-2.64l.1-.09.51.02c.55.02.95.03,1.52.02l.06.1c-.62,1.76-1.05,2.99-1.66,4.75l-.91,2.65c-.55,1.62-.92,2.77-1.35,4.42l-.12.08-.7-.02c-.56-.02-.95-.02-1.51,0l-.08-.12c.4-.84.75-1.7,1.06-2.58l.16-.45c-.52-2.06-.91-3.52-1.49-5.55-.35-1.26-.56-2.13-.99-3.36l.07-.1Z"/><path class="cls-1" d="M133.1,237.51c.12,2.22.24,4.21.46,6.44l-.09.1-.51.03c-.74.04-1.26.08-1.99.16l-.1-.09c-.06-2.4-.16-4.07-.28-6.47l-.02-.36c-.11,0-.49.06-.81.08l-.09-.08c0-.54-.02-1.21-.02-1.62l.09-.1c.28-.02.66,0,.72,0l-.03-.64c-.11-1.94.2-3.22,2.57-3.35.38-.02.77,0,1.15.05l.07.09c-.03.64-.02,1.08,0,1.7l-.11.1c-.12-.06-.26-.1-.4-.09-.64.04-.81.53-.77,1.22l.04.78c.16,0,.47-.03,1.14-.11l.11.11c-.02.59-.02,1.15-.01,1.6l-.09.1c-.39,0-.93.03-1.03.04l.02.29Z"/><path class="cls-1" d="M138.17,234.76c2.5-.28,3.84,1.15,4.18,4.1.42,3.77-1.6,4.68-3.11,4.85-2.31.26-3.82-.9-4.19-4.18-.25-2.22.39-4.47,3.12-4.77M139.03,242.07c.78-.09.9-1.07.67-3.07-.15-1.38-.5-2.69-1.29-2.6-.86.1-.86,1.56-.71,2.87.15,1.33.46,2.89,1.33,2.79"/><path class="cls-1" d="M144.36,242.82c-.19-1.34-.32-2.28-.55-3.6-.24-1.52-.57-3.03-.98-4.52l.08-.11c.81-.23,1.59-.52,2.35-.88l.11.08c.09.58.16.98.26,1.56l.06.34c.12-.9.36-2.1,1.52-2.31.17-.03.34-.03.51-.02l.12.1c.03,1.01.07,1.7.14,2.7l-.1.08c-.22-.19-.52-.28-.81-.24-1.14.2-.99,1.43-.78,2.66.26,1.48.45,2.38.71,3.66l-.08.11-.66.12c-.66.12-1.12.21-1.79.37l-.11-.08Z"/><path class="cls-1" d="M160.6,239.15l-.54.15c-.61.17-1.05.31-1.66.51l-.14-.06-.17-.61c-.34.66-.94,1.14-1.65,1.32-.99.28-2.32-.15-2.83-2.01-.46-1.64.17-2.93,2.72-4.2l.31-.16-.04-.14c-.15-.54-.4-.96-1.41-.68-.71.21-1.35.62-1.82,1.19l-.13-.03c-.11-.6-.22-1.03-.36-1.61l.06-.15c.76-.57,1.62-1,2.53-1.27,2.71-.75,3.28,1.07,3.57,2.09.09.33.44,1.71.72,2.72.36,1.31.74,2.34.92,2.82l-.08.12ZM157.06,235.52c-.67.27-1.61.79-1.27,2.02.14.49.53,1.04,1.16.87.33-.11.59-.35.73-.66l-.62-2.22Z"/><path class="cls-1" d="M166.63,237.06c-.65-1.73-1.12-2.95-1.82-4.68-.82-2.03-1.57-3.84-2.49-5.85l.04-.11c1.25-.52,2.11-.92,3.37-1.43,1.62-.66,3.56-1.31,4.54,1.13.53,1.12.18,2.46-.83,3.17,2.23-.6,3.04,1.12,3.27,1.68.27.63.35,1.33.23,2.01-.32,1.47-1.51,2.23-3.57,3.07l-.82.33c-.67.27-1.14.46-1.81.75l-.11-.06ZM167.08,229.61c.53-.21,1.53-.74.98-2.11-.51-1.27-1.37-1.03-1.88-.83-.27.11-.66.28-.71.3.12.29.35.9.52,1.34.1.24.44,1.04.61,1.48l.47-.19ZM169.07,234.27c.53-.22,1.62-.76,1.03-2.2-.49-1.21-1.34-1.17-2.31-.78-.17.07-.34.14-.51.22l.3.74c.34.83.57,1.41.92,2.24l.56-.23Z"/><path class="cls-1" d="M180.14,228.75c.24.59.43,1.01.7,1.59l-.04.15c-.49.81-1.8,1.45-1.83,1.47-3.47,1.72-5.09-1.37-5.52-2.25-1.46-2.96-.62-4.8,1.12-5.66.62-.34,1.34-.45,2.03-.31,1.08.23,1.87,1.02,2.64,2.56.14.28.24.48.36.77l-.06.14-3.66,1.81c.56,1.13,1.58,1.64,2.79,1.04.58-.27,1.06-.74,1.34-1.32h.13ZM176.82,226.83c-.43-.86-.93-1.58-1.6-1.25-.57.28-.45,1.23-.04,2.06l1.64-.81Z"/><path class="cls-1" d="M181.57,222.55c1.31,2.32,1.61,2.88,1.89,3.38.26.45.7,1.11,1.31.76.16-.1.29-.23.37-.4h.12c.27.55.44.92.73,1.46l-.03.15c-.31.33-.68.61-1.08.82-1.94,1.09-2.74-.09-3.18-.87-.98-1.74-1.47-2.63-1.7-3.04l-.6-1.07c-.16.11-.43.26-.68.42l-.11-.03c-.27-.54-.46-.92-.74-1.44l.04-.13.64-.36-.22-.38c-.28-.5-.62-1.06-.78-1.34l.02-.14c.65-.61,1.1-1.07,1.71-1.72l.13.04c.46.88.82,1.51,1.29,2.39.38-.22.65-.38,1.03-.64l.13.06c.18.38.45.89.72,1.43l-.04.12-.97.55Z"/><path class="cls-1" d="M185.65,220.08c1.41,2.26,1.73,2.81,2.04,3.3.28.44.75,1.07,1.34.7.15-.1.28-.25.36-.42h.12c.29.53.48.9.79,1.42l-.02.15c-.3.34-.65.63-1.04.86-1.89,1.18-2.74.03-3.21-.73-1.06-1.69-1.58-2.56-1.83-2.96l-.65-1.04c-.16.12-.42.28-.66.45l-.11-.03c-.29-.53-.5-.9-.8-1.41l.03-.14.62-.39-.23-.37c-.3-.48-.66-1.03-.84-1.31v-.14c.63-.64,1.06-1.12,1.65-1.79l.13.03c.5.86.88,1.47,1.4,2.33.37-.23.63-.41,1-.68l.13.05c.2.38.49.87.78,1.4l-.04.12-.94.59Z"/><path class="cls-1" d="M195.17,219.25c.33.55.58.93.93,1.46v.15c-.38.88-1.57,1.71-1.6,1.73-3.17,2.23-5.24-.57-5.8-1.37-1.9-2.7-1.35-4.65.24-5.77.56-.43,1.26-.65,1.96-.62,1.1.06,2.01.72,3,2.13.18.25.31.44.47.7l-.04.15-3.34,2.35c.73,1.03,1.81,1.38,2.92.6.54-.36.93-.89,1.12-1.51h.13ZM191.6,217.87c-.55-.79-1.16-1.42-1.78-.99-.52.37-.26,1.28.28,2.04l1.5-1.05Z"/><path class="cls-1" d="M197.78,219.9c-.81-1.09-1.37-1.85-2.2-2.9-.94-1.22-1.95-2.4-3.02-3.51l.02-.14c.6-.59,1.15-1.22,1.65-1.89l.14.02c.35.47.61.79.97,1.25l.21.27c-.32-.85-.69-2.02.23-2.75.14-.1.28-.19.44-.26l.15.03c.51.87.87,1.46,1.41,2.3l-.05.12c-.29-.06-.58,0-.82.17-.91.72-.19,1.73.59,2.71.94,1.18,1.53,1.87,2.37,2.88l-.02.14-.52.42c-.52.42-.88.72-1.4,1.18l-.14-.02Z"/><path class="cls-1" d="M207.19,211.88c-.89-.96-5.66-5.96-6.57-6.9-.62.63-1.08,1.05-1.67,1.71h-.14c-.44-.53-.76-.88-1.23-1.39v-.13s2.58-2.49,2.58-2.49c1.02-.99,1.73-1.7,2.71-2.7h.13c.43.53.75.9,1.22,1.41v.14c-.58.49-.95.85-1.49,1.38l-.2.19,1.43,1.48c1.92,1.98,3.27,3.37,5.24,5.28v.14s-.55.53-.55.53c-.5.49-.84.84-1.32,1.34h-.14Z"/><path class="cls-1" d="M206.64,199.89c1.7-1.86,3.65-1.66,5.85.35,2.8,2.56,1.88,4.58.85,5.7-1.57,1.71-3.47,1.83-5.91-.4-1.65-1.51-2.65-3.62-.79-5.65M212.09,204.83c.53-.58-.03-1.4-1.51-2.76-1.02-.94-2.15-1.7-2.69-1.11-.59.64.38,1.74,1.35,2.64.99.91,2.25,1.88,2.84,1.23"/><path class="cls-1" d="M213.7,196.15c1.73,1.32,2.94,2.24,4.72,3.47l.02.14c-.55.73-.93,1.25-1.46,1.99l-.14.02c-.46-.35-1.43-1.11-2.54-1.95-1.33-1.05-2.71-2.02-4.15-2.91l-.02-.14c.44-.75.83-1.53,1.19-2.32l.15-.03c.31.28.54.45.85.71-.19-1.37.07-2,.36-2.39.42-.59,1.17-.84,1.86-.64-.16-.9.04-1.82.57-2.56,1.01-1.33,2.4-.8,3.64.14l.95.72c1.34,1.02,2.3,1.73,3.69,2.68l.02.14-.34.44c-.42.56-.72.97-1.12,1.55l-.14.02c-1.44-1.13-2.4-1.89-3.95-3.07-.74-.56-1.42-1.02-1.84-.47-.19.29-.25.64-.17.98.36.23.64.45.94.68l1.29.98c1.02.77,1.77,1.29,2.81,2.03l.02.14-.3.39c-.44.57-.72.97-1.13,1.57l-.14.02c-.83-.67-1.42-1.13-2.27-1.77l-1.35-1.03c-1.13-.86-1.8-1.23-2.2-.71-.15.3-.2.64-.12.97l.29.22Z"/><path class="cls-1" d="M218.83,183.88c1.34-2.14,3.29-2.3,5.81-.72,3.22,2.01,2.68,4.16,1.87,5.45-1.23,1.97-3.08,2.43-5.88.68-1.9-1.19-3.26-3.08-1.81-5.41M225.08,187.76c.42-.67-.28-1.37-1.99-2.44-1.18-.74-2.42-1.28-2.84-.6-.46.73.69,1.64,1.81,2.35,1.14.71,2.55,1.44,3.02.69"/><path class="cls-1" d="M228.98,184.05c-1.17-.69-1.99-1.17-3.17-1.81-1.35-.76-2.73-1.44-4.15-2.04l-.04-.13c.32-.77.58-1.57.77-2.39l.13-.04c.51.29.87.49,1.39.77l.3.16c-.63-.66-1.42-1.59-.87-2.62.09-.15.19-.29.3-.41l.15-.03c.81.61,1.37,1,2.2,1.56v.13c-.28.06-.53.23-.68.48-.55,1.02.51,1.67,1.6,2.26,1.32.72,2.14,1.12,3.31,1.72l.04.13-.32.59c-.32.59-.53,1.01-.83,1.63l-.13.04Z"/><path class="cls-1" d="M231.88,178.61c-1.2-.63-2.05-1.06-3.26-1.64-1.38-.69-2.8-1.29-4.25-1.82l-.05-.13c.28-.79.5-1.6.65-2.43l.13-.05c.52.27.89.44,1.42.7l.31.15c-.66-.62-1.51-1.51-1-2.57.08-.15.17-.3.28-.43l.15-.04c.84.56,1.42.93,2.28,1.45v.13c-.27.07-.51.26-.65.52-.5,1.05.6,1.64,1.72,2.17,1.36.65,2.2,1.01,3.4,1.54l.05.13-.29.61c-.29.61-.48,1.04-.74,1.67l-.13.05Z"/><path class="cls-1" d="M227.62,166.57c.94-2.34,2.83-2.85,5.6-1.74,3.52,1.41,3.38,3.62,2.81,5.04-.86,2.16-2.6,2.94-5.67,1.71-2.08-.83-3.76-2.46-2.73-5.01M234.47,169.27c.29-.73-.52-1.3-2.39-2.05-1.29-.52-2.61-.83-2.91-.09-.32.81.97,1.5,2.2,1.99,1.24.5,2.77.97,3.09.15"/><path class="cls-1" d="M230.07,160.64c1.03.14,1.76.22,2.8.33l2.96.31c-3.56-1.88-4.18-2.2-5.08-2.62l-.06-.14c.11-.31.21-.64.31-.97.17-.55.26-.93.4-1.49l.13-.08c1.03.14,1.74.22,5.74.67-3.54-1.84-4.17-2.18-5.13-2.59l-.07-.12.16-.53c.14-.45.23-.77.34-1.23l.12-.05c1.38.82,2.33,1.39,3.71,2.19l1.99,1.16c.68.39,1.26.7,1.85,1.05l.05.15c-.03.09-.17.5-.24.75-.16.53-.24.92-.38,1.47l-.13.08c-1.02-.14-1.74-.22-5.76-.65,3.39,1.82,4.11,2.16,5.09,2.71l.06.14-.2.67c-.17.58-.28.97-.42,1.56l-.13.08c-2.68-.16-7.94-.5-8.67-.5l-.07-.11c.21-.81.34-1.4.51-2.2l.13-.08Z"/><path class="cls-1" d="M59.75,106.16c-3.83,0-6.54.09-10.37.28l-.56-.65c.47-8.41.47-14.38.47-22.79,0-15.6,0-26.53-.75-42.13l.56-.65c3.83-.09,6.54-.09,10.37-.37l.56.75c-.19,10.93-.47,18.68-.47,29.7,0,12.98.09,22.14.84,35.21l-.65.65Z"/><path class="cls-1" d="M109.04,106.16c-14.39,0-24.47.09-38.86.28l-.47-.65c.47-10.93.47-18.59.47-29.61v-4.48c0-11.4,0-19.43-.65-30.83l.65-.65c14.48-.09,27.18-.28,39.23-.28l.47.65c-.28,2.71-.47,4.58-.56,7.29l-.65.65c-10.27-.28-17.56-.47-27.93-.47-.09,5.42-.19,9.25-.19,14.76v5.14h8.41c6.63,0,11.3-.09,17.93-.28l.56.65c-.28,2.71-.47,4.58-.56,7.29l-.56.65c-8.03-.19-13.73-.28-21.76-.28h-4.02c-.09,3.92-.19,7.75-.19,11.68,0,3.55.09,8.87.09,10.65h3.92c9.34,0,15.88-.19,25.22-.47l.47.65c-.19,2.62-.28,4.39-.37,7.01l-.65.65Z"/><path class="cls-1" d="M157.58,106.16c-14.39,0-24.47.09-38.86.28l-.47-.65c.47-10.93.47-18.59.47-29.61v-4.48c0-11.4,0-19.43-.65-30.83l.65-.65c14.48-.09,27.18-.28,39.23-.28l.47.65c-.28,2.71-.47,4.58-.56,7.29l-.65.65c-10.27-.28-17.56-.47-27.93-.47-.09,5.42-.19,9.25-.19,14.76v5.14h8.41c6.63,0,11.3-.09,17.93-.28l.56.65c-.28,2.71-.47,4.58-.56,7.29l-.56.65c-8.03-.19-13.73-.28-21.76-.28h-4.02c-.09,3.92-.19,7.75-.19,11.68,0,3.55.09,8.87.09,10.65h3.92c9.34,0,15.88-.19,25.22-.47l.47.65c-.19,2.62-.28,4.39-.37,7.01l-.65.65Z"/><path class="cls-1" d="M205.07,106.16c-14.39,0-24.47.09-38.86.28l-.47-.65c.47-10.93.47-18.59.47-29.61v-4.48c0-11.4,0-19.43-.65-30.83l.65-.65c14.48-.09,27.18-.28,39.23-.28l.47.65c-.28,2.71-.47,4.58-.56,7.29l-.65.65c-10.27-.28-17.56-.47-27.93-.47-.09,5.42-.19,9.25-.19,14.76v5.14h8.41c6.63,0,11.3-.09,17.93-.28l.56.65c-.28,2.71-.47,4.58-.56,7.29l-.56.65c-8.03-.19-13.73-.28-21.76-.28h-4.02c-.09,3.92-.19,7.75-.19,11.68,0,3.55.09,8.87.09,10.65h3.92c9.34,0,15.88-.19,25.22-.47l.47.65c-.19,2.62-.28,4.39-.37,7.01l-.65.65Z"/><path class="cls-1" d="M163.5,180.43h-2.99c-4.95,0-8.31.09-13.26.28l-.65-.56c-1.4-6.44-2.43-10.93-4.02-17.28-1.96,0-6.63-.09-9.9-.09-3.46,0-8.41.09-10.27.09-1.77,6.26-2.99,10.65-4.58,17l-.65.56h-14.57l-.37-.65c8.41-23.82,14.2-40.63,21.67-64.73l.65-.56h4.3c6.07,0,10.46-.09,16.53-.28l.65.56c5.98,23.07,10.55,39.23,17.19,62.3l.75,2.62-.47.75ZM133.61,124.85c-1.12,4.02-2.05,6.82-7.94,26.71,2.43.09,4.86.09,7.29.09,2.24,0,4.58,0,6.91-.09,0,0-4.76-20.55-6.26-26.71"/><path class="cls-1" d="M174.49,180.15c.65-8.97.65-15.41.65-24.47v-2.9c-7.1-13.36-14.01-24.1-21.58-37.55l.37-.75c6.54-.09,11.11-.28,17.75-.65l.65.47c4.2,9.43,7.66,15.97,12.52,25.03,4.76-8.78,7.47-15.32,11.77-24.29l.65-.56h3.36c4.11,0,7.01-.09,11.21-.28l.28.65c-7.57,13.92-13.17,23.63-20.64,37.55v3.74c0,8.78.09,14.94.56,23.73l-.56.56h-2.62c-5.14,0-8.78.09-13.82.28l-.56-.56Z"/><path class="cls-1" d="M216.08,119.35h-.24c-.37,0-.64,0-1.02.02l-.04-.04c.04-1.18.05-2.01.05-3.2,0-.31,0-.68,0-.85-.35,0-.72.02-1.14.03l-.04-.03c.01-.33.04-.57.05-.87l.04-.05h2.31c.44,0,.75,0,1.19,0l.04.04c-.03.32-.04.55-.05.88l-.04.04c-.4-.02-.69-.03-1.1-.03-.01.39-.02.66-.02,1.06,0,.35.03,2.71.05,2.97l-.04.04Z"/><path class="cls-1" d="M223.37,119.35h-.23c-.37,0-.62,0-.99.02l-.03-.04c0-1.33-.02-3.19-.02-4.04-.06.24-1.06,3.91-1.09,4.02l-.04.04h-.2c-.32,0-.54,0-.85.02l-.04-.04c-.22-.91-.98-3.68-1.05-4.08,0,.29-.09,3.72-.09,4.05l-.04.04h-.23c-.28,0-.49,0-.77.02l-.04-.04c.12-1.65.22-3.26.25-4.92l.04-.04h.35c.49,0,.83,0,1.32-.02l.04.04s.69,2.65.86,3.42c.22-.83.9-3.27.94-3.4l.04-.04h.35c.47,0,.81,0,1.29-.02l.04.04c.03,1.61.14,3.29.22,4.92l-.04.04Z"/><path class="cls-1" d="M97.17,121.26c-6.82-6.63-14.19-7-23.15-7s-14.56.28-24.55.47l-.56.56c.65,13.54.75,27.17.75,40.7,0,6.72-.28,16.15-.28,24.27l.56.56h17.83c12.98,0,24.92-1.4,32.11-12.41,4.48-6.82,5.69-14.56,5.69-22.5,0-9.24-1.4-17.83-8.4-24.64ZM84.86,159.99c-.84,1.51-2.01,3.56-4.41,5.28-2.15,1.51-4.68,2.4-7.3,2.57h-6.91l-.22-.35c0-5,.11-10.81.11-14.94,0-8.33-.04-16.73-.29-25.06l.22-.34c3.6-.98,7.42-.85,10.95.36,1.39.49,4.78,1.72,7.41,4.94,3.32,4.06,3.36,8.7,3.4,13.9.02,3.17,0,8.35-2.94,13.65h0Z"/></g></g></g></svg>